<svg width="14" height="16" viewBox="0 0 14 16" fill="none" xmlns="http://www.w3.org/2000/svg">
<path d="M12.1369 2.2014C11.3911 2.12934 10.6583 1.9587 9.95957 1.69352C9.11601 1.37415 8.33039 0.922189 7.62373 0.350322C7.20962 0.0153875 6.63134 0.0153875 6.21722 0.350322C5.51056 0.921613 4.72495 1.37357 3.88138 1.69352C3.18268 1.9587 2.44989 2.12934 1.70403 2.2014C1.11553 2.25847 0.671875 2.75193 0.671875 3.34859V9.04766C0.671875 11.4648 1.99544 13.6382 4.12622 14.7196L6.41264 15.8795C6.57169 15.9602 6.74608 16 6.92048 16C7.09487 16 7.26926 15.9596 7.42889 15.8795L9.71531 14.7196C11.8455 13.6382 13.1696 11.4648 13.1696 9.04766V3.34859C13.1696 2.75136 12.7254 2.25847 12.1369 2.2014ZM9.59772 6.93544L6.75744 9.86972C6.65065 9.97983 6.50466 10.0421 6.35242 10.0421H6.35072C6.19734 10.0421 6.05135 9.97868 5.94513 9.86742L4.24096 8.0861C4.02226 7.85781 4.02794 7.4929 4.25289 7.27095C4.47784 7.04901 4.83799 7.0542 5.05612 7.28306L6.35526 8.64067L8.78767 6.1278C9.00751 5.90009 9.36652 5.8972 9.5909 6.1203C9.81472 6.3434 9.81812 6.70831 9.59829 6.93544H9.59772Z" fill="black"/>
</svg>
