<svg width="12" height="13" viewBox="0 0 12 13" fill="none" xmlns="http://www.w3.org/2000/svg">
<path d="M0 10.5796V11.0271C0 11.6375 0.491783 12.1325 1.09822 12.1325H10.9018C11.5082 12.1325 12 11.6375 12 11.0271V10.5796H0Z" fill="black"/>
<path d="M4.21928 6.33031C5.11071 6.33031 5.11071 7.12188 6.00215 7.12188C6.89358 7.12188 6.89358 6.33031 7.78501 6.33031C8.67644 6.33031 8.67644 7.12188 9.56788 7.12188C10.3865 7.12188 10.4529 6.45757 11.145 6.34541V5.73071C11.145 5.18502 10.7057 4.7407 10.1636 4.7407H6.21647V3.72373C6.88612 3.61103 7.40577 2.95049 7.26005 2.26727C7.25791 2.06237 6.37933 0.438245 6.28827 0.22097C6.16934 -0.0033443 5.83452 -0.0033443 5.71558 0.22097C5.61916 0.448515 4.75075 2.05373 4.7438 2.26727C4.59808 2.95046 5.11773 3.61101 5.78738 3.72373V4.7407H1.8408C1.29866 4.7407 0.859375 5.18502 0.859375 5.73071V6.34541C1.55152 6.45757 1.6201 7.12188 2.43652 7.12188C3.32796 7.12188 3.32785 6.33031 4.21928 6.33031Z" fill="black"/>
<path d="M11.1446 6.7897C11.0026 6.82907 10.9014 6.90941 10.7439 7.04961C10.5044 7.26206 10.1771 7.55377 9.56745 7.55377C8.95834 7.55377 8.63209 7.26259 8.39263 7.05014C8.19065 6.87058 8.06851 6.76221 7.78459 6.76221C7.50066 6.76221 7.37852 6.87059 7.17655 7.05014C6.93708 7.2626 6.60923 7.55377 6.00172 7.55377C5.39422 7.55377 5.06636 7.26259 4.82689 7.05014C4.62492 6.87058 4.50278 6.76221 4.21939 6.76221C3.936 6.76221 3.81332 6.87059 3.61135 7.05014C3.37189 7.2626 3.04403 7.55377 2.43653 7.55377C1.82902 7.55377 1.50117 7.26259 1.2617 7.05014C1.10367 6.90995 1.00135 6.82906 0.859375 6.79024V10.1496H11.1451V6.7908L11.1446 6.7897Z" fill="black"/>
</svg>
