<svg width="12" height="13" viewBox="0 0 12 13" fill="none" xmlns="http://www.w3.org/2000/svg">
<path d="M7.36909 7.62866V7.73035C7.36909 8.49306 6.75079 9.11594 5.99369 9.11594C5.23659 9.11594 4.6183 8.49306 4.6183 7.73035V7.62866L0.252366 6.77697C0.164038 6.76426 0.0757098 6.73884 0 6.68799V10.5269C0 11.4676 0.757098 12.2303 1.69085 12.2303H10.3091C11.2429 12.2303 12 11.4676 12 10.5269V6.68799C11.9243 6.72612 11.836 6.75155 11.7476 6.77697L7.36909 7.62866Z" fill="black"/>
<path d="M10.3218 3.24336H8.78233V2.60777C8.78233 1.62897 7.98738 0.828125 7.01577 0.828125H4.97161C4 0.828125 3.20505 1.62897 3.20505 2.60777V3.24336H1.66562C0.744479 3.24336 0 3.99335 0 4.92131V5.63317C0 5.86198 0.164038 6.05266 0.378549 6.10351L4.6183 6.92977C4.63092 6.17978 5.23659 5.58232 5.99369 5.58232C6.73817 5.58232 7.35647 6.17978 7.36909 6.92977L11.5962 6.10351C11.8233 6.05266 11.9874 5.86198 11.9874 5.63317V4.9086C11.9874 3.99335 11.2429 3.24336 10.3218 3.24336ZM4.50473 2.59506C4.50473 2.34083 4.71924 2.13744 4.95899 2.13744H7.01577C7.26814 2.13744 7.47003 2.35354 7.47003 2.59506V3.23065H4.50473V2.59506Z" fill="black"/>
<path d="M6.68489 7.73041V6.9677C6.68489 6.58635 6.36943 6.26855 5.99088 6.26855C5.61233 6.26855 5.29688 6.58635 5.29688 6.9677V7.73041C5.29688 8.11176 5.61233 8.42955 5.99088 8.42955C6.36943 8.42955 6.68489 8.11176 6.68489 7.73041Z" fill="black"/>
</svg>
