<svg width="26" height="25" viewBox="0 0 26 25" fill="none" xmlns="http://www.w3.org/2000/svg">
<path d="M1.70677 14.3726C1.79204 14.7874 1.95715 15.1811 2.19265 15.5312C2.42814 15.8814 2.72943 16.1811 3.07928 16.4132C3.42913 16.6453 3.8207 16.8053 4.23162 16.8841C4.64253 16.9629 5.06474 16.9589 5.47412 16.8723L6.0578 16.7487L6.49555 18.8801C6.54719 19.1303 6.67115 19.3592 6.85163 19.5377C7.03211 19.7162 7.26096 19.8363 7.50903 19.8827C7.58778 19.8973 7.66772 19.9045 7.7478 19.9042C7.95856 19.9037 8.1659 19.8502 8.35115 19.7484C8.5364 19.6466 8.69375 19.4997 8.80903 19.3209L11.1756 15.6628L17.397 14.3484C17.8064 14.2621 18.195 14.0948 18.5406 13.8562C18.8862 13.6176 19.182 13.3124 19.4112 12.958C19.6403 12.6035 19.7983 12.2068 19.876 11.7905C19.9538 11.3742 19.9498 10.9465 19.8644 10.5317L18.2248 2.56773C18.1395 2.15294 17.9744 1.75924 17.7389 1.40912C17.5034 1.05899 17.2021 0.759306 16.8522 0.527175C16.5024 0.295044 16.1108 0.13502 15.6999 0.0562426C15.289 -0.0225344 14.8668 -0.0185199 14.4574 0.0680567L2.53453 2.58923C2.12511 2.67562 1.7365 2.84289 1.3909 3.08147C1.0453 3.32005 0.749488 3.62528 0.520359 3.97972C0.291229 4.33416 0.133274 4.73085 0.0555154 5.14715C-0.022243 5.56345 -0.0182805 5.99119 0.0671767 6.40594L1.70677 14.3726ZM2.80514 3.90895L14.7307 1.38509C15.2126 1.28332 15.7148 1.37961 16.1267 1.65279C16.5386 1.92596 16.8266 2.35367 16.9274 2.84189L18.5723 10.8059C18.6216 11.048 18.6232 11.2976 18.5772 11.5404C18.5312 11.7832 18.4384 12.0145 18.3041 12.2209C18.1698 12.4273 17.9967 12.6049 17.7946 12.7436C17.5925 12.8822 17.3655 12.9791 17.1264 13.0287L10.6343 14.3995C10.5491 14.4176 10.4682 14.4526 10.3962 14.5024C10.3243 14.5522 10.2628 14.6159 10.2152 14.6898L7.77168 18.4796L7.22249 15.8133C7.20489 15.7257 7.17018 15.6425 7.12043 15.5686C7.07067 15.4947 7.00685 15.4317 6.93272 15.3831C6.8586 15.3345 6.77564 15.3014 6.68873 15.2858C6.60181 15.2701 6.51269 15.2722 6.42657 15.2919L5.1929 15.5607C4.7125 15.6592 4.2131 15.5614 3.80358 15.2885C3.39407 15.0156 3.10765 14.5898 3.00677 14.1039L1.36718 6.13178C1.31705 5.88981 1.31449 5.6402 1.35964 5.39723C1.4048 5.15426 1.49677 4.92268 1.63032 4.71574C1.76387 4.50881 1.93636 4.33057 2.13795 4.19121C2.33953 4.05185 2.56625 3.95411 2.80514 3.90358V3.90895ZM4.92759 6.91125C4.90816 6.824 4.90612 6.73371 4.92158 6.64566C4.93704 6.55761 4.9697 6.47357 5.01764 6.39847C5.06557 6.32337 5.12783 6.25872 5.20075 6.20831C5.27366 6.1579 5.35578 6.12274 5.44229 6.1049L13.1733 4.47071C13.3407 4.44639 13.5109 4.48777 13.6492 4.58638C13.7875 4.685 13.8834 4.83339 13.9173 5.00123C13.9511 5.16908 13.9205 5.34369 13.8315 5.48938C13.7425 5.63507 13.602 5.74083 13.4386 5.78505L5.71821 7.42731C5.63209 7.44699 5.54297 7.44906 5.45605 7.4334C5.36914 7.41773 5.28619 7.38465 5.21206 7.33608C5.13793 7.28752 5.07411 7.22445 5.02436 7.15058C4.9746 7.0767 4.9399 6.99351 4.92229 6.90587L4.92759 6.91125ZM14.4786 7.51869C14.4981 7.60594 14.5001 7.69623 14.4846 7.78428C14.4692 7.87233 14.4365 7.95637 14.3886 8.03147C14.3406 8.10657 14.2784 8.17122 14.2055 8.22163C14.1326 8.27204 14.0504 8.3072 13.9639 8.32504L6.23555 9.94311C6.06816 9.96742 5.89793 9.92604 5.75965 9.82743C5.62137 9.72882 5.52549 9.58042 5.49161 9.41258C5.45774 9.24474 5.48841 9.07012 5.57738 8.92443C5.66634 8.77874 5.80688 8.67298 5.97025 8.62876L13.7013 6.99457C13.8729 6.95961 14.0512 6.99481 14.1973 7.09249C14.3434 7.19016 14.4455 7.3424 14.4813 7.51601L14.4786 7.51869ZM12.5605 10.5452C12.5799 10.6324 12.5819 10.7227 12.5665 10.8108C12.551 10.8988 12.5184 10.9829 12.4704 11.058C12.4225 11.1331 12.3602 11.1977 12.2873 11.2481C12.2144 11.2985 12.1323 11.3337 12.0458 11.3515L6.73964 12.4697C6.57225 12.494 6.40201 12.4526 6.26373 12.354C6.12546 12.2554 6.02958 12.107 5.9957 11.9391C5.96182 11.7713 5.9925 11.5967 6.08146 11.451C6.17043 11.3053 6.31096 11.1995 6.47433 11.1553L11.7805 10.0372C11.9502 10.0018 12.1269 10.0352 12.2726 10.1301C12.4184 10.2251 12.5217 10.3741 12.5605 10.5452ZM25.9478 14.8457L24.7327 20.7589C24.6648 21.0886 24.5335 21.4015 24.3462 21.6798C24.1589 21.958 23.9194 22.1962 23.6412 22.3806C23.3631 22.5651 23.0518 22.6922 22.7251 22.7548C22.3985 22.8173 22.0628 22.8141 21.7374 22.7452L21.4721 22.6887L21.1829 24.0999C21.1378 24.3188 21.0296 24.5192 20.8721 24.6759C20.7146 24.8326 20.5147 24.9385 20.2979 24.9802C20.081 25.0219 19.8568 24.9975 19.6535 24.9102C19.4503 24.8229 19.2772 24.6765 19.156 24.4896L17.4421 21.8179L12.8974 20.8583C12.2405 20.7188 11.6651 20.3209 11.2975 19.7519C10.9299 19.183 10.8002 18.4895 10.9368 17.8238C10.9496 17.7331 10.9806 17.6461 11.0279 17.568C11.0751 17.4899 11.1376 17.4224 11.2116 17.3697C11.2855 17.3169 11.3693 17.2801 11.4578 17.2614C11.5463 17.2427 11.6376 17.2425 11.7262 17.2608C11.8148 17.2792 11.8988 17.3157 11.9729 17.3681C12.047 17.4205 12.1098 17.4877 12.1574 17.5656C12.205 17.6435 12.2363 17.7305 12.2495 17.8211C12.2627 17.9117 12.2575 18.0041 12.2341 18.0926C12.1698 18.4094 12.2319 18.7391 12.4069 19.0096C12.5819 19.2801 12.8556 19.4694 13.168 19.5359L17.9807 20.5546C18.0659 20.5727 18.1468 20.6077 18.2188 20.6575C18.2907 20.7073 18.3522 20.771 18.3999 20.8449L19.9917 23.2989L20.3127 21.7346C20.3303 21.6469 20.365 21.5637 20.4148 21.4899C20.4645 21.416 20.5284 21.3529 20.6025 21.3044C20.6766 21.2558 20.7596 21.2227 20.8465 21.207C20.9334 21.1914 21.0225 21.1935 21.1086 21.2131L22.0239 21.4067C22.1788 21.4393 22.3385 21.4408 22.4939 21.4109C22.6493 21.381 22.7974 21.3204 22.9297 21.2326C23.062 21.1447 23.1759 21.0313 23.265 20.8988C23.354 20.7664 23.4164 20.6174 23.4486 20.4605L24.6637 14.5473C24.696 14.3904 24.6974 14.2287 24.6679 14.0712C24.6384 13.9138 24.5786 13.7637 24.4919 13.6297C24.4052 13.4957 24.2932 13.3803 24.1625 13.2901C24.0317 13.1999 23.8847 13.1366 23.7299 13.104L21.7825 12.7089C21.6191 12.6647 21.4786 12.5589 21.3896 12.4132C21.3007 12.2675 21.27 12.0929 21.3039 11.9251C21.3378 11.7572 21.4336 11.6088 21.5719 11.5102C21.7102 11.4116 21.8804 11.3702 22.0478 11.3945L23.9793 11.8031C24.6371 11.9408 25.2139 12.3376 25.5831 12.9061C25.9522 13.4747 26.0834 14.1684 25.9478 14.8349V14.8457Z" fill="black"/>
</svg>
