<svg width="14" height="16" viewBox="0 0 14 16" fill="none" xmlns="http://www.w3.org/2000/svg">
<path d="M13.4837 5.51056L8.13702 0.161243C8.04896 0.0734425 7.92934 0.0245719 7.80473 0.025401H3.33378C1.67396 0.025401 0.328125 1.36726 0.328125 3.02227V12.9321C0.328125 14.5871 1.67392 15.929 3.33378 15.929H10.6143C11.4118 15.929 12.1761 15.6134 12.7393 15.051C13.3034 14.4894 13.6199 13.7273 13.6199 12.9321V5.83851C13.6199 5.71509 13.571 5.59755 13.4837 5.51056ZM3.65119 4.56464C3.65119 4.43625 3.75503 4.3327 3.88381 4.3327H7.07385C7.13532 4.3327 7.1943 4.35672 7.23833 4.40062C7.28236 4.44452 7.30645 4.50334 7.30645 4.56463V5.09475C7.30645 5.15604 7.28236 5.21485 7.23833 5.25875C7.1943 5.30265 7.13532 5.32668 7.07385 5.32668H3.88381C3.75504 5.32668 3.65119 5.22314 3.65119 5.09474V4.56464ZM10.2971 11.7212C10.2971 11.7825 10.273 11.8413 10.229 11.8852C10.185 11.9291 10.126 11.9532 10.0645 11.9532H3.8839C3.82243 11.9532 3.76344 11.9291 3.71941 11.8852C3.67539 11.8413 3.65129 11.7825 3.65129 11.7212V11.1911C3.65129 11.1298 3.67539 11.071 3.71941 11.0271C3.76344 10.9832 3.82243 10.9592 3.8839 10.9592H10.0645C10.126 10.9592 10.185 10.9832 10.229 11.0271C10.273 11.071 10.2971 11.1298 10.2971 11.1911V11.7212ZM10.2971 9.07065C10.2971 9.13194 10.273 9.19075 10.229 9.23465C10.185 9.27855 10.126 9.30258 10.0645 9.30258H3.8839C3.82243 9.30258 3.76344 9.27855 3.71941 9.23465C3.67539 9.19075 3.65129 9.13194 3.65129 9.07065V8.54053C3.65129 8.47923 3.67539 8.42042 3.71941 8.37652C3.76344 8.33262 3.82243 8.3086 3.8839 8.3086H10.0645C10.126 8.3086 10.185 8.33262 10.229 8.37652C10.273 8.42042 10.2971 8.47923 10.2971 8.54053V9.07065Z" fill="black"/>
</svg>
