<svg width="13" height="12" viewBox="0 0 13 12" fill="none" xmlns="http://www.w3.org/2000/svg">
<path fill-rule="evenodd" clip-rule="evenodd" d="M8.65194 8.82174L7.17441 7.32013C7.033 7.1758 6.95323 6.9805 6.95323 6.77722V1.07477C6.95323 1.03424 6.96894 0.994933 6.99734 0.966068C7.02575 0.937202 7.06442 0.921234 7.10431 0.921234H7.54183C7.61253 0.921234 7.67357 0.970981 7.68928 1.04161C7.9304 2.14402 8.51839 4.83402 8.72869 5.79579C8.79697 6.10901 8.95228 6.39644 9.17587 6.62368C9.49132 6.94427 9.99531 7.45647 9.99531 7.45647C10.1724 7.63642 10.4594 7.63642 10.6365 7.45647C10.8129 7.27652 10.8129 6.9848 10.6365 6.80485L9.81644 5.97206C9.71492 5.86888 9.64482 5.73806 9.61339 5.59558L8.57398 0.841394C8.46642 0.350069 8.03736 0 7.54183 0C7.40284 0 7.24934 0 7.10431 0C6.82391 0 6.55499 0.113005 6.35678 0.315062C6.15796 0.516505 6.04677 0.789805 6.04677 1.07477C6.04677 2.40811 6.04677 5.54583 6.04677 6.77722C6.04677 7.22494 6.22202 7.65423 6.53324 7.97114L8.01137 9.47275C8.18783 9.65269 8.47488 9.65269 8.65194 9.47275C8.829 9.29341 8.829 9.00107 8.65194 8.82174Z" fill="black"/>
<path fill-rule="evenodd" clip-rule="evenodd" d="M4.98863 9.47275C4.98863 9.47275 5.93437 8.51221 6.46676 7.97114C6.77798 7.65423 6.95323 7.22494 6.95323 6.77722V1.07477C6.95323 0.789805 6.84204 0.516505 6.64322 0.315062C6.44501 0.113005 6.17609 0 5.89569 0C5.75066 0 5.59717 0 5.45818 0C4.96264 0 4.53359 0.350069 4.42602 0.841394L3.38661 5.59558C3.35519 5.73806 3.28509 5.86888 3.18356 5.97206L2.36352 6.80485C2.18706 6.9848 2.18706 7.27652 2.36352 7.45647C2.54058 7.63642 2.82763 7.63642 3.00469 7.45647C3.00469 7.45647 3.50868 6.94427 3.82413 6.62368C4.04772 6.39644 4.20303 6.10901 4.27132 5.79579C4.48161 4.83402 5.06961 2.14402 5.31072 1.04161C5.32644 0.970981 5.38747 0.921234 5.45818 0.921234H5.89569C5.93558 0.921234 5.97425 0.937202 6.00266 0.966068C6.03106 0.994933 6.04677 1.03424 6.04677 1.07477V6.77722C6.04677 6.9805 5.967 7.1758 5.82559 7.32013L4.34806 8.82174C4.171 9.00107 4.171 9.29341 4.34806 9.47275C4.52512 9.65269 4.81217 9.65269 4.98863 9.47275Z" fill="black"/>
<path fill-rule="evenodd" clip-rule="evenodd" d="M12.4971 7.41655L11.4179 6.74098C11.0009 6.47935 10.4618 6.54384 10.1156 6.89575L8.02588 9.0195C7.69411 9.35667 7.62039 9.87625 7.84579 10.2951C8.01681 10.6126 8.25914 11.0622 8.46279 11.4411C8.62233 11.7378 8.91058 11.941 9.24053 11.9889C9.56988 12.0375 9.90285 11.9245 10.1385 11.6856C10.8353 10.9768 12.0071 9.78597 12.6905 9.09197C12.919 8.85921 13.0307 8.53309 12.9927 8.20697C12.9552 7.88024 12.7727 7.58913 12.4971 7.41655ZM10.9423 7.52526L12.0216 8.20083C12.0608 8.2254 12.0874 8.26716 12.0923 8.31383C12.0977 8.36051 12.082 8.40719 12.0494 8.44035L9.49736 11.0339C9.46352 11.0683 9.41639 11.0843 9.36925 11.0775C9.32212 11.0702 9.28102 11.0413 9.25806 10.9989L8.64106 9.85291C8.60903 9.79334 8.61931 9.71902 8.66705 9.67051L10.7561 7.54737C10.8057 7.49701 10.883 7.48779 10.9423 7.52526Z" fill="black"/>
<path fill-rule="evenodd" clip-rule="evenodd" d="M1.58215 6.74098L0.502855 7.41655C0.227291 7.58913 0.0447902 7.88024 0.0073231 8.20697C-0.0307483 8.53309 0.0810486 8.85921 0.309477 9.09197C0.992948 9.78597 2.1647 10.9768 2.86147 11.6856C3.09715 11.9245 3.43012 12.0375 3.75947 11.9889C4.08942 11.941 4.37767 11.7378 4.53721 11.4411C4.74086 11.0622 4.98319 10.6126 5.15421 10.2951C5.37961 9.87625 5.30589 9.35667 4.97412 9.0195L2.88443 6.89575C2.53816 6.54384 1.99912 6.47935 1.58215 6.74098ZM2.05774 7.52526C2.11696 7.48779 2.19431 7.49701 2.24386 7.54737L4.33295 9.67051C4.38069 9.71902 4.39097 9.79334 4.35894 9.85291L3.74194 10.9989C3.71898 11.0413 3.67789 11.0702 3.63075 11.0775C3.58361 11.0843 3.53648 11.0683 3.50264 11.0339L0.950647 8.44035C0.918014 8.40719 0.902302 8.36051 0.907741 8.31383C0.912575 8.26716 0.939165 8.2254 0.978445 8.20083L2.05774 7.52526Z" fill="black"/>
</svg>
