<svg width="19" height="14" viewBox="0 0 19 14" fill="none" xmlns="http://www.w3.org/2000/svg">
<path d="M17.8825 2.12209L16.0442 0.276175C15.8052 0.0361968 15.413 0.0361968 15.174 0.276175L13.3357 2.12209C13.2254 2.23899 13.158 2.39282 13.158 2.55896V4.40487H11.9324V2.55896C11.9324 2.39283 11.865 2.239 11.7547 2.12209L9.91637 0.276175C9.67737 0.0361968 9.28519 0.0361968 9.04622 0.276175L7.20787 2.12209C7.09757 2.23899 7.03016 2.39282 7.03016 2.55896V4.40487H5.8046V2.55896C5.8046 2.39283 5.73719 2.239 5.62689 2.12209L3.78855 0.276175C3.54955 0.0361968 3.15737 0.0361968 2.9184 0.276175L1.08005 2.12209C0.96975 2.23899 0.902344 2.39282 0.902344 2.55896V12.4038C0.902344 13.0807 1.45385 13.6344 2.12791 13.6344H4.57904C5.2531 13.6344 5.8046 13.0807 5.8046 12.4038V10.5579H7.03016V12.4038C7.03016 13.0807 7.58167 13.6344 8.25573 13.6344H10.7069C11.3809 13.6344 11.9324 13.0807 11.9324 12.4038V10.5579H13.158V12.4038C13.158 13.0807 13.7095 13.6344 14.3835 13.6344H16.8347C17.5087 13.6344 18.0602 13.0807 18.0602 12.4038V2.55896C18.0602 2.39283 17.9928 2.239 17.8825 2.12209ZM7.03011 9.32734H5.80455V5.63552H7.03011V9.32734ZM13.1579 9.32734H11.9324V5.63552H13.1579V9.32734Z" fill="black"/>
</svg>
