<svg width="29" height="20" viewBox="0 0 29 20" fill="none" xmlns="http://www.w3.org/2000/svg">
<path d="M9.0773 0C8.0191 0.000973193 6.99231 0.36132 6.16375 1.0225C5.33519 1.68368 4.75354 2.60684 4.5133 3.64201H1.07761C0.791812 3.64201 0.517717 3.75605 0.315625 3.95904C0.113534 4.16203 0 4.43735 0 4.72442C0 5.0115 0.113534 5.28681 0.315625 5.48981C0.517717 5.6928 0.791812 5.80684 1.07761 5.80684H4.5133C4.75708 6.83861 5.34025 7.75761 6.16849 8.4152C6.99672 9.07279 8.02158 9.43051 9.0773 9.43051C10.133 9.43051 11.1579 9.07279 11.9861 8.4152C12.8144 7.75761 13.3975 6.83861 13.6413 5.80684H26.9784C27.2642 5.80684 27.5382 5.6928 27.7403 5.48981C27.9424 5.28681 28.056 5.0115 28.056 4.72442C28.056 4.43735 27.9424 4.16203 27.7403 3.95904C27.5382 3.75605 27.2642 3.64201 26.9784 3.64201H13.6413C13.4011 2.60684 12.8194 1.68368 11.9909 1.0225C11.1623 0.36132 10.1355 0.000973193 9.0773 0ZM9.0773 7.28402C8.57582 7.28402 8.08559 7.13465 7.66862 6.85479C7.25165 6.57494 6.92666 6.17718 6.73475 5.7118C6.54284 5.24642 6.49263 4.73433 6.59046 4.24029C6.6883 3.74625 6.92979 3.29244 7.28439 2.93626C7.639 2.58007 8.09079 2.33751 8.58264 2.23924C9.07449 2.14096 9.58431 2.1914 10.0476 2.38417C10.5109 2.57693 10.9069 2.90337 11.1855 3.3222C11.4642 3.74103 11.6129 4.23344 11.6129 4.73716C11.6129 5.41263 11.3457 6.06043 10.8702 6.53806C10.3947 7.01569 9.74978 7.28402 9.0773 7.28402Z" fill="black"/>
<path d="M19.0167 10.5696C17.9585 10.5706 16.9317 10.9309 16.1031 11.5921C15.2746 12.2533 14.6929 13.1764 14.4527 14.2116H1.07761C0.791812 14.2116 0.517717 14.3256 0.315625 14.5286C0.113534 14.7316 0 15.0069 0 15.294C0 15.5811 0.113534 15.8564 0.315625 16.0594C0.517717 16.2624 0.791812 16.3764 1.07761 16.3764H14.4147C14.6584 17.4082 15.2416 18.3272 16.0698 18.9848C16.8981 19.6424 17.9229 20.0001 18.9787 20.0001C20.0344 20.0001 21.0593 19.6424 21.8875 18.9848C22.7157 18.3272 23.2989 17.4082 23.5427 16.3764H26.9784C27.2642 16.3764 27.5382 16.2624 27.7403 16.0594C27.9424 15.8564 28.056 15.5811 28.056 15.294C28.056 15.0069 27.9424 14.7316 27.7403 14.5286C27.5382 14.3256 27.2642 14.2116 26.9784 14.2116H23.5427C23.3039 13.1828 22.7279 12.2644 21.9071 11.6039C21.0863 10.9434 20.0684 10.5791 19.0167 10.5696ZM19.0167 17.8281C18.5152 17.8281 18.025 17.6788 17.608 17.3989C17.191 17.1191 16.8661 16.7213 16.6741 16.2559C16.4822 15.7905 16.432 15.2784 16.5299 14.7844C16.6277 14.2904 16.8692 13.8366 17.2238 13.4804C17.5784 13.1242 18.0302 12.8816 18.522 12.7833C19.0139 12.6851 19.5237 12.7355 19.987 12.9283C20.4503 13.121 20.8463 13.4475 21.1249 13.8663C21.4035 14.2851 21.5523 14.7775 21.5523 15.2813C21.5523 15.9567 21.2851 16.6045 20.8096 17.0822C20.3341 17.5598 19.6892 17.8281 19.0167 17.8281Z" fill="black"/>
</svg>
