<svg width="15" height="20" viewBox="0 0 15 20" fill="none" xmlns="http://www.w3.org/2000/svg">
<path d="M13.8679 9.46429C13.3582 8.65556 12.636 8.08727 11.9139 7.49711C11.1493 6.86325 10.4484 6.16381 9.87488 5.35508C9.85364 5.31137 9.81116 5.26765 9.78992 5.22394C8.81291 3.78134 8.2182 1.63931 9.1315 0C9.06778 0.109287 8.68547 0.218575 8.57927 0.284147C8.30316 0.415292 8.0058 0.546437 7.72969 0.721297C7.13498 1.07102 6.58275 1.50817 6.09424 1.98903C4.67119 3.34419 3.60921 5.09279 3.52426 7.12554C3.50302 7.89055 3.50302 8.69928 3.63045 9.46429C3.75789 10.2074 4.20392 10.8413 4.034 11.6282C4.01277 11.7375 3.94905 11.8686 3.84285 11.9123C3.75789 11.9342 3.67293 11.8905 3.58797 11.8468C2.12245 11.038 1.33658 8.50256 1.86757 6.92882C1.31534 8.56813 0.338322 9.92329 0.0834471 11.6719C-0.0864694 12.7429 -0.00151122 13.8576 0.380801 14.8849C0.741873 15.8685 1.31534 16.7428 2.03749 17.486C2.80211 18.2729 3.73665 18.9286 4.71367 19.4094C4.88359 19.4969 5.07474 19.5843 5.2659 19.6499C5.47829 19.7154 5.69069 19.781 5.92433 19.8247C7.07126 20.0433 8.28192 20.0652 9.42885 19.8466C10.3422 19.6717 11.213 19.322 11.9988 18.7974C12.9334 18.1636 13.698 17.3111 14.2715 16.3057C15.4609 14.2292 15.0998 11.4315 13.8679 9.46429ZM10.4059 15.1254C8.68547 17.639 6.34912 15.65 6.34912 15.65C9.25894 15.2565 8.09076 9.13643 8.09076 9.13643C12.2537 12.3495 10.4059 15.1254 10.4059 15.1254Z" fill="#DC3545"/>
</svg>
