<svg width="34" height="26" viewBox="0 0 34 26" fill="none" xmlns="http://www.w3.org/2000/svg">
<path d="M7.17492 11.8574C8.09714 11.8194 8.9689 11.4282 9.60792 10.7656C10.2469 10.103 10.6038 9.22026 10.6038 8.30199C10.6038 7.38372 10.2469 6.50099 9.60792 5.83838C8.9689 5.17577 8.09714 4.78457 7.17492 4.74658C6.25271 4.78457 5.38095 5.17577 4.74193 5.83838C4.10291 6.50099 3.74609 7.38372 3.74609 8.30199C3.74609 9.22026 4.10291 10.103 4.74193 10.7656C5.38095 11.4282 6.25271 11.8194 7.17492 11.8574ZM7.17492 5.96523C7.77661 5.98745 8.34483 6.24635 8.7548 6.68505C9.16476 7.12376 9.38295 7.70641 9.36143 8.30503C9.38129 8.90263 9.16236 9.48371 8.75257 9.92108C8.34278 10.3585 7.77551 10.6165 7.17492 10.6387C6.57326 10.6181 6.00442 10.3607 5.59332 9.92317C5.18222 9.48562 4.96246 8.90364 4.98229 8.30503C4.96244 7.70583 5.18201 7.1232 5.59295 6.68468C6.00389 6.24616 6.57271 5.98747 7.17492 5.96523Z" fill="#BDBDBD"/>
<path d="M32.9843 13.3503C32.7302 13.1411 32.4371 12.9839 32.1218 12.8877C31.8065 12.7915 31.4752 12.7582 31.1469 12.7897C28.2561 13.0761 23.0623 12.7897 20.8146 7.48861C20.6643 7.1283 20.4247 6.81175 20.1182 6.56848C19.8116 6.32521 19.4481 6.16316 19.0616 6.09745C18.6751 6.03174 18.2782 6.06451 17.9078 6.1927C17.5375 6.3209 17.2058 6.54034 16.9438 6.83054C16.6805 6.54489 16.3491 6.32978 15.9803 6.20501C15.6114 6.08025 15.2169 6.04985 14.8332 6.11661C14.4494 6.18338 14.0887 6.34517 13.7843 6.58707C13.4799 6.82897 13.2416 7.1432 13.0914 7.5008C10.8191 12.7715 5.65602 13.0761 2.75905 12.7897C2.35387 12.7497 1.94499 12.8084 1.56765 12.9606C1.19031 13.1128 0.85583 13.354 0.593037 13.6634C0.330244 13.9728 0.147022 14.3411 0.0591601 14.7367C-0.0287015 15.1322 -0.0185667 15.5431 0.0886914 15.9338C0.244712 16.4649 0.577721 16.9274 1.03297 17.2452C1.48822 17.563 2.03862 17.7173 2.59368 17.6826L7.55467 17.5059C7.17901 19.3047 6.41177 20.9998 5.30691 22.4719C4.98109 22.8434 4.79602 23.3165 4.78372 23.8095C4.77142 24.3024 4.93265 24.784 5.23954 25.1712C5.4408 25.4277 5.69823 25.6351 5.99222 25.7776C6.28622 25.9202 6.60903 25.9941 6.93608 25.9938C7.37194 25.9965 7.79861 25.8691 8.16101 25.6282C9.68884 24.5736 10.8642 23.0881 11.5357 21.3629L12.5953 23.6418C12.819 24.1227 13.2115 24.5057 13.699 24.7191C14.1865 24.9325 14.7356 24.9615 15.2431 24.8007C15.7506 24.6399 16.1816 24.3003 16.4553 23.8457C16.729 23.3911 16.8265 22.8528 16.7294 22.3317L15.1064 13.7281C15.9494 12.9971 16.5833 12.0575 16.9438 11.0044C17.3043 12.0575 17.9382 12.9971 18.7812 13.7281L17.1765 22.3378C17.1157 22.6511 17.126 22.974 17.2065 23.2828C17.287 23.5917 17.4358 23.8788 17.642 24.1232C17.8775 24.4076 18.1818 24.6279 18.5263 24.7633C18.8708 24.8987 19.2443 24.9448 19.6116 24.8973C19.979 24.8498 20.3281 24.7103 20.6264 24.4917C20.9247 24.2732 21.1622 23.9828 21.3168 23.6479L22.3764 21.369C23.0478 23.0942 24.2232 24.5797 25.7511 25.6343C26.1135 25.8752 26.5401 26.0026 26.976 25.9999C27.3865 25.9993 27.7882 25.8811 28.133 25.6595C28.4778 25.4379 28.7512 25.1221 28.9204 24.75C29.0897 24.3779 29.1476 23.9652 29.0874 23.5612C29.0271 23.1573 28.8512 22.7791 28.5807 22.4719C27.4826 20.9973 26.7198 19.3028 26.3452 17.5059L31.3062 17.6826C31.8256 17.7156 32.3421 17.583 32.7808 17.3043C33.2195 17.0255 33.5575 16.615 33.7459 16.1322C33.9342 15.6495 33.9631 15.1196 33.8284 14.6194C33.6937 14.1192 33.4023 13.6747 32.9966 13.3503H32.9843ZM16.3313 8.5793C16.0986 10.0478 15.5229 11.9976 14.0958 12.9603C13.9986 13.0265 13.9226 13.1192 13.877 13.2273C13.8313 13.3354 13.818 13.4542 13.8386 13.5697L15.5167 22.5511C15.544 22.6893 15.54 22.8317 15.5051 22.9682C15.4702 23.1046 15.4053 23.2317 15.3151 23.3401C15.2248 23.4486 15.1115 23.5357 14.9832 23.5953C14.855 23.6548 14.7151 23.6853 14.5735 23.6844C14.3899 23.6836 14.2101 23.6311 14.0552 23.533C13.9002 23.4349 13.7763 23.2952 13.6977 23.13L11.9767 19.4131C11.923 19.2995 11.8353 19.2051 11.7257 19.143C11.6161 19.0808 11.4898 19.0538 11.3642 19.0658C11.2362 19.0829 11.1169 19.1399 11.0234 19.2285C10.9299 19.3172 10.867 19.433 10.8436 19.5593C10.3804 21.5887 9.19201 23.3816 7.49955 24.6045C7.30767 24.7282 7.07679 24.7772 6.85088 24.7424C6.62498 24.7076 6.41986 24.5912 6.27461 24.4156C6.14123 24.2543 6.0683 24.0518 6.0683 23.8429C6.0683 23.6339 6.14123 23.4315 6.27461 23.2701C7.14431 22.283 9.05521 18.7245 8.81635 16.793C8.7983 16.6444 8.72588 16.5076 8.61292 16.4087C8.49996 16.3098 8.35435 16.2557 8.20388 16.2568L2.60593 16.4518C2.32782 16.4702 2.0514 16.3965 1.81982 16.2422C1.58825 16.0879 1.41456 15.8616 1.32588 15.5987C1.28415 15.4543 1.26961 15.3035 1.283 15.1539C1.29618 14.9844 1.34366 14.8193 1.4226 14.6685C1.50154 14.5177 1.6103 14.3844 1.74235 14.2765C1.87365 14.1686 2.02518 14.0877 2.18815 14.0386C2.35111 13.9894 2.52226 13.9729 2.69168 13.9901C5.9255 14.3069 11.7194 13.9535 14.2734 7.9517C14.3798 7.70594 14.5729 7.50736 14.8162 7.39334C15.0595 7.27931 15.3363 7.25771 15.5945 7.33261C15.8527 7.4075 16.0745 7.57372 16.2181 7.79997C16.3617 8.02622 16.4172 8.29689 16.3742 8.56102L16.3313 8.5793ZM32.6168 15.6109C32.536 15.8677 32.372 16.0906 32.1504 16.2449C31.9288 16.3993 31.6621 16.4763 31.3919 16.464H31.3368L25.7388 16.269C25.5893 16.2677 25.4444 16.3209 25.3316 16.4186C25.2188 16.5162 25.1458 16.6516 25.1264 16.7991C24.8875 18.7306 26.7984 22.283 27.6681 23.2762C27.8015 23.4376 27.8744 23.64 27.8744 23.849C27.8744 24.0579 27.8015 24.2603 27.6681 24.4217C27.5228 24.5973 27.3177 24.7136 27.0918 24.7485C26.8659 24.7833 26.635 24.7342 26.4432 24.6106C24.7392 23.3929 23.5395 21.5993 23.0685 19.5654C23.0451 19.439 22.9821 19.3233 22.8886 19.2346C22.7951 19.146 22.6759 19.089 22.5479 19.0719H22.456C22.3389 19.0716 22.2241 19.1047 22.1253 19.1674C22.0265 19.23 21.9479 19.3195 21.8987 19.4253L20.1776 23.1421C20.0991 23.3073 19.9751 23.4471 19.8202 23.5452C19.6652 23.6433 19.4855 23.6958 19.3018 23.6966C19.1603 23.6975 19.0203 23.667 18.8921 23.6074C18.7639 23.5479 18.6505 23.4607 18.5603 23.3523C18.47 23.2439 18.4051 23.1168 18.3702 22.9804C18.3353 22.8439 18.3314 22.7015 18.3586 22.5633L20.0613 13.594C20.0818 13.4786 20.0685 13.3597 20.0229 13.2517C19.9773 13.1436 19.9013 13.0509 19.804 12.9847C18.377 12.022 17.8012 10.0721 17.5685 8.60368C17.5255 8.33954 17.581 8.06887 17.7246 7.84262C17.8682 7.61637 18.09 7.45015 18.3482 7.37526C18.6064 7.30036 18.8832 7.32196 19.1265 7.43599C19.3699 7.55001 19.5629 7.7486 19.6693 7.99435C22.2233 13.9962 28.0233 14.3496 31.2449 14.0328C31.415 14.0143 31.5872 14.0299 31.7512 14.0788C31.9151 14.1277 32.0676 14.2088 32.1995 14.3173C32.3314 14.4258 32.4401 14.5595 32.5191 14.7105C32.5982 14.8616 32.646 15.0268 32.6597 15.1966C32.6694 15.3361 32.6549 15.4763 32.6168 15.6109Z" fill="#BDBDBD"/>
<path d="M26.7441 11.8572C27.458 11.8901 28.1653 11.7095 28.775 11.3387C29.3847 10.968 29.8688 10.424 30.1648 9.77703C30.4609 9.13002 30.5554 8.40962 30.4362 7.70869C30.3169 7.00776 29.9893 6.35843 29.4957 5.84441C29.0021 5.3304 28.365 4.97526 27.6666 4.82478C26.9683 4.6743 26.2406 4.73537 25.5774 5.00013C24.9143 5.26488 24.346 5.72119 23.9459 6.31021C23.5458 6.89924 23.3322 7.59398 23.3327 8.30488C23.3146 9.22517 23.6632 10.1152 24.3023 10.7808C24.9414 11.4463 25.8192 11.8333 26.7441 11.8572ZM26.7441 5.96508C27.3464 5.98732 27.9152 6.24601 28.3261 6.68453C28.7371 7.12305 28.9566 7.70567 28.9368 8.30488C28.9525 8.60064 28.9075 8.89648 28.8046 9.17438C28.7017 9.45228 28.5429 9.70642 28.3381 9.9213C28.1332 10.1362 27.8865 10.3073 27.613 10.4243C27.3395 10.5412 27.0449 10.6015 26.7472 10.6015C26.4495 10.6015 26.1549 10.5412 25.8814 10.4243C25.6079 10.3073 25.3612 10.1362 25.1564 9.9213C24.9515 9.70642 24.7927 9.45228 24.6898 9.17438C24.5869 8.89648 24.5419 8.60064 24.5576 8.30488C24.5361 7.70625 24.7543 7.12361 25.1643 6.6849C25.5742 6.24619 26.1425 5.9873 26.7441 5.96508Z" fill="#BDBDBD"/>
<path d="M16.9445 4.26527C17.1069 4.26527 17.2627 4.20107 17.3776 4.0868C17.4924 3.97253 17.557 3.81755 17.557 3.65594V0.609324C17.557 0.447721 17.4924 0.292737 17.3776 0.178467C17.2627 0.0641965 17.1069 0 16.9445 0C16.7821 0 16.6263 0.0641965 16.5114 0.178467C16.3966 0.292737 16.332 0.447721 16.332 0.609324V3.65594C16.332 3.81755 16.3966 3.97253 16.5114 4.0868C16.6263 4.20107 16.7821 4.26527 16.9445 4.26527Z" fill="#BDBDBD"/>
<path d="M18.6898 5.02071C18.8386 5.02049 18.9823 4.96634 19.094 4.86837L21.354 2.91244C21.4303 2.86577 21.4953 2.80303 21.5445 2.72865C21.5938 2.65426 21.626 2.57005 21.639 2.48192C21.652 2.3938 21.6454 2.30392 21.6197 2.2186C21.594 2.13328 21.5498 2.05461 21.4903 1.98812C21.4307 1.92162 21.3572 1.86893 21.275 1.83374C21.1927 1.79856 21.1037 1.78174 21.0143 1.78447C20.9248 1.78719 20.837 1.80941 20.7571 1.84954C20.6771 1.88967 20.607 1.94674 20.5517 2.01674L18.2855 3.97267C18.1639 4.07941 18.0897 4.22982 18.0794 4.3909C18.069 4.55197 18.1234 4.71055 18.2304 4.83182C18.2895 4.89349 18.3609 4.94217 18.44 4.9747C18.5191 5.00724 18.6042 5.02291 18.6898 5.02071Z" fill="#BDBDBD"/>
<path d="M14.7903 4.86845C14.9019 4.96642 15.0456 5.02057 15.1945 5.02078C15.2819 5.01992 15.3681 5.00043 15.4474 4.96365C15.5266 4.92686 15.597 4.87363 15.6538 4.80752C15.7609 4.68625 15.8152 4.52768 15.8049 4.3666C15.7945 4.20553 15.7204 4.05511 15.5987 3.94837L13.3326 2.01682C13.2723 1.96147 13.2015 1.91873 13.1243 1.89113C13.0471 1.86353 12.9651 1.85164 12.8832 1.85616C12.8014 1.86068 12.7212 1.88151 12.6476 1.91743C12.5739 1.95335 12.5083 2.00362 12.4545 2.06525C12.4008 2.12689 12.36 2.19864 12.3347 2.27624C12.3093 2.35384 12.2999 2.43572 12.307 2.51702C12.314 2.59831 12.3374 2.67737 12.3758 2.74949C12.4141 2.82162 12.4667 2.88535 12.5302 2.9369L14.7903 4.86845Z" fill="#BDBDBD"/>
</svg>
