<svg width="11" height="14" viewBox="0 0 11 14" fill="none" xmlns="http://www.w3.org/2000/svg">
<path d="M4.71429 10.6069V11.4272H3.92857V12.9511H4.71429V14H6.28571V12.9511H7.07143V11.4272H6.28571V10.6069C8.94734 10.2354 11 8.01619 11 5.33376C11 2.39306 8.53235 0 5.5 0C2.46765 0 0 2.39306 0 5.33376C0 8.01613 2.05266 10.2341 4.71429 10.6069ZM5.5 1.52393C7.66562 1.52393 9.42857 3.2336 9.42857 5.33376C9.42857 7.43392 7.66562 9.14359 5.5 9.14359C3.33438 9.14359 1.57143 7.43392 1.57143 5.33376C1.57143 3.2336 3.33438 1.52393 5.5 1.52393Z" fill="black"/>
</svg>
