<svg width="39" height="32" viewBox="0 0 39 32" fill="none" xmlns="http://www.w3.org/2000/svg">
<path d="M38.9757 10.3847C38.9494 5.13883 33.7229 0 28.3983 0C24.3805 0 20.9361 2.47396 19.5002 5.97278C18.0646 2.47396 14.6201 0 10.6021 0C5.27768 0 0.0510849 5.13859 0.0247899 10.3847C-0.0444823 11.0782 -0.481616 17.9474 8.22272 25.0904C8.48787 25.2882 14.78 29.9526 19.2061 31.9356C19.2276 31.9452 19.2467 31.9476 19.2682 31.9571C19.2849 31.9619 19.3016 31.969 19.3208 31.9738C19.3805 31.9881 19.4402 32 19.4999 32C19.5596 32 19.6193 31.9905 19.6791 31.9738C19.6958 31.969 19.7125 31.9619 19.7316 31.9571C19.7531 31.9499 19.7746 31.9452 19.7937 31.9356C24.22 29.9527 30.5117 25.2881 30.8034 25.0715C39.4814 17.9474 39.0447 11.0784 38.975 10.3853L38.9757 10.3847Z" fill="#29BCA2"/>
</svg>
