<svg width="35" height="34" viewBox="0 0 35 34" fill="none" xmlns="http://www.w3.org/2000/svg">
<path d="M32.2581 8.98949L21.1291 1.1477C18.959 -0.382568 16.0424 -0.382568 13.8704 1.1477L2.74143 8.98949C1.02529 10.1999 0 12.1897 0 14.3129V27.5226C0 31.0933 2.85891 34 6.37079 34H12.71C13.4147 34 13.9841 33.4211 13.9841 32.7045V28.138C13.9841 26.1664 15.5609 24.5633 17.5 24.5633C19.4391 24.5633 21.0159 26.1664 21.0159 28.138V32.7045C21.0159 33.4211 21.5853 34 22.29 34H28.6292C32.1411 34 35 31.0933 35 27.5226V14.3129C35 12.1895 33.9742 10.1997 32.2581 8.98949ZM32.4512 27.5211C32.4512 29.6647 30.737 31.4075 28.6287 31.4075H23.5639V28.1364C23.5639 24.7358 20.8444 21.971 17.5 21.971C14.1555 21.971 11.436 24.736 11.436 28.1364V31.4075H6.3712C4.26288 31.4075 2.54873 29.6647 2.54873 27.5211V14.3113C2.54873 13.0361 3.16389 11.8418 4.19321 11.1171L15.3222 3.27535C16.6243 2.35841 18.3742 2.35841 19.6783 3.27535L30.8073 11.1171C31.8365 11.8418 32.4517 13.036 32.4517 14.3113L32.4512 27.5211Z" fill="#BDBDBD"/>
</svg>
