<svg width="25" height="25" viewBox="0 0 25 25" fill="none" xmlns="http://www.w3.org/2000/svg">
<path d="M1.98934e-06 21.6621C1.98934e-06 22.5473 0.351191 23.3964 0.976312 24.0223C1.60143 24.6483 2.44928 25 3.33333 25H21.6667C22.5507 25 23.3986 24.6483 24.0237 24.0223C24.6488 23.3964 25 22.5473 25 21.6621V9.20744C25.0005 8.77553 24.8943 8.35022 24.6907 7.96945C24.4871 7.58868 24.1926 7.2643 23.8333 7.02527L13.9833 0.449557C13.544 0.156418 13.0279 0 12.5 0C11.9721 0 11.456 0.156418 11.0167 0.449557L1.16667 7.02527C0.80743 7.2643 0.51288 7.58868 0.309306 7.96945C0.105733 8.35022 -0.000530222 8.77553 1.98934e-06 9.20744V21.6621ZM2.5 9.20744C2.49999 9.18859 2.50453 9.17002 2.51323 9.15331C2.52194 9.1366 2.53456 9.12224 2.55 9.11147L12.4042 2.53159C12.4327 2.51292 12.466 2.50298 12.5 2.50298C12.534 2.50298 12.5673 2.51292 12.5958 2.53159L22.45 9.11147C22.4654 9.12224 22.4781 9.1366 22.4868 9.15331C22.4955 9.17002 22.5 9.18859 22.5 9.20744V21.6621C22.5 21.8834 22.4122 22.0956 22.2559 22.2521C22.0996 22.4086 21.8877 22.4966 21.6667 22.4966H3.33333C3.11232 22.4966 2.90036 22.4086 2.74408 22.2521C2.5878 22.0956 2.5 21.8834 2.5 21.6621V9.20744Z" fill="black"/>
</svg>
