<svg width="40" height="26" viewBox="0 0 40 26" fill="none" xmlns="http://www.w3.org/2000/svg">
<path d="M3.91304 0C1.76778 0 0 1.7628 0 3.90202V21.2443C0 23.3836 1.76778 25.1464 3.91304 25.1464H36.087C38.2322 25.1464 40 23.3836 40 21.2443V3.90202C40 1.7628 38.2322 0 36.087 0H3.91304ZM3.91304 2.60135H36.087C36.8321 2.60135 37.3913 3.15895 37.3913 3.90202V21.2443C37.3913 21.9874 36.8321 22.545 36.087 22.545H3.91304C3.16787 22.545 2.6087 21.9874 2.6087 21.2443V3.90202C2.6087 3.15895 3.16787 2.60135 3.91304 2.60135ZM11.3043 5.63625C9.39883 5.63625 7.82609 7.20452 7.82609 9.10472C7.82609 11.0049 9.39878 12.5732 11.3043 12.5732C13.2099 12.5732 14.7826 11.0049 14.7826 9.10472C14.7826 7.20452 13.2099 5.63625 11.3043 5.63625ZM11.3043 12.5732C9.50813 12.5732 7.86252 13.0262 6.58965 13.8468C5.31687 14.6673 4.34783 15.9424 4.34783 17.4778V18.2094C4.34791 18.8905 4.96922 19.5101 5.65217 19.5101H16.9565C17.6395 19.5101 18.2608 18.8905 18.2609 18.2094V17.4778C18.2609 15.9424 17.2918 14.6673 16.019 13.8468C14.7462 13.0262 13.1006 12.5732 11.3043 12.5732ZM21.3043 6.50337C20.584 6.50337 20 7.08568 20 7.80404C20 8.52236 20.584 9.10472 21.3043 9.10472H34.3478C35.0682 9.10472 35.6522 8.52236 35.6522 7.80404C35.6522 7.08568 35.0682 6.50337 34.3478 6.50337H21.3043ZM11.3043 8.2376C11.8 8.2376 12.1739 8.61042 12.1739 9.10472C12.1739 9.59897 11.8 9.97183 11.3043 9.97183C10.8087 9.97183 10.4348 9.59897 10.4348 9.10472C10.4348 8.61042 10.8087 8.2376 11.3043 8.2376ZM21.3043 11.2725C20.584 11.2725 20 11.8548 20 12.5732C20 13.2915 20.584 13.8739 21.3043 13.8739H34.3478C35.0682 13.8739 35.6522 13.2915 35.6522 12.5732C35.6522 11.8548 35.0682 11.2725 34.3478 11.2725H21.3043ZM11.3043 15.1745C12.6394 15.1745 13.822 15.5314 14.5924 16.0281C15.0451 16.3199 15.2902 16.6227 15.4483 16.9088H7.16035C7.31852 16.6227 7.56356 16.3199 8.0163 16.0281C8.7867 15.5314 9.96926 15.1745 11.3043 15.1745ZM21.3043 16.0416C20.584 16.0416 20 16.624 20 17.3423C20 18.0606 20.584 18.643 21.3043 18.643H34.3478C35.0682 18.643 35.6522 18.0606 35.6522 17.3423C35.6522 16.624 35.0682 16.0416 34.3478 16.0416H21.3043Z" fill="black"/>
</svg>
