<svg width="15" height="16" viewBox="0 0 15 16" fill="none" xmlns="http://www.w3.org/2000/svg">
<path fill-rule="evenodd" clip-rule="evenodd" d="M6 8.63627V11.6559C6 12.4898 6.6715 13.1657 7.5 13.1657H10.293L12.1465 15.0313C12.2895 15.1752 12.5045 15.2185 12.6915 15.1405C12.878 15.0625 13 14.8788 13 14.6755V13.1657H13.5C14.3285 13.1657 15 12.4898 15 11.6559V6.6232C15 5.78928 14.3285 5.1134 13.5 5.1134H9V2.09379C9 1.25987 8.3285 0.583984 7.5 0.583984H1.5C0.6715 0.583984 0 1.25987 0 2.09379V7.12647C0 7.96038 0.6715 8.63627 1.5 8.63627H2V10.1461C2 10.3494 2.122 10.5331 2.3085 10.6111C2.4955 10.6891 2.7105 10.6458 2.8535 10.5019L4.707 8.63627H6ZM9.9085 10.1476L11.093 10.1516L11.532 11.3293C11.6285 11.5894 11.917 11.7213 12.1755 11.6237C12.434 11.5265 12.565 11.2362 12.468 10.976L10.968 6.94982C10.895 6.75355 10.7085 6.6232 10.5 6.6232C10.2915 6.6232 10.105 6.75355 10.032 6.94982L8.532 10.976C8.435 11.2362 8.566 11.5265 8.8245 11.6237C9.083 11.7213 9.3715 11.5894 9.468 11.3293L9.9085 10.1476ZM10.283 9.14205L10.7175 9.14357L10.5 8.55977L10.283 9.14205ZM5.236 4.10686C5.054 4.47626 4.8315 4.84918 4.5565 5.17681C4.5145 5.22713 4.4705 5.27645 4.4255 5.32477C4.2225 5.15668 4.0405 4.97399 3.8785 4.78476C3.6985 4.5744 3.3825 4.55074 3.1735 4.73242C2.9645 4.9136 2.941 5.23166 3.1215 5.44203C3.2685 5.61364 3.4285 5.78023 3.6025 5.93926C3.4015 6.03186 3.1825 6.09628 2.944 6.12295C2.67 6.15415 2.4725 6.40327 2.503 6.67957C2.534 6.95536 2.7815 7.15415 3.056 7.12345C3.5985 7.06205 4.072 6.86527 4.483 6.58344C4.8975 6.82098 5.368 7.00719 5.9005 7.1164C6.171 7.17176 6.435 6.99562 6.49 6.72335C6.545 6.45108 6.37 6.18535 6.0995 6.13C5.8015 6.0691 5.5275 5.977 5.2765 5.86175C5.8205 5.22965 6.2055 4.46015 6.466 3.78628C6.566 3.52709 6.4385 3.2352 6.1815 3.13455C6.119 3.10989 6.0545 3.09932 5.9915 3.10032H5V2.59706C5 2.31925 4.776 2.09379 4.5 2.09379C4.224 2.09379 4 2.31925 4 2.59706V3.10032H3C2.724 3.10032 2.5 3.32579 2.5 3.60359C2.5 3.8814 2.724 4.10686 3 4.10686H5.236Z" fill="black"/>
</svg>
