<svg width="10" height="14" viewBox="0 0 10 14" fill="none" xmlns="http://www.w3.org/2000/svg">
<path d="M5 0C2.24282 0 0 2.34883 0 5.23633C0 6.17695 0.422977 7.36367 1.28982 8.86484C2.01044 10.1117 2.90339 11.3504 3.6893 12.4414C4.05222 12.9445 4.39426 13.4203 4.65796 13.8141C4.73629 13.9316 4.86423 14 5 14C5.13577 14 5.26371 13.9316 5.34204 13.8141C5.60574 13.4203 5.94778 12.9445 6.31071 12.4414C7.09661 11.3504 7.98695 10.1117 8.71018 8.86484C9.57702 7.36367 10 6.17695 10 5.23633C10 2.34883 7.75718 0 5 0ZM5 7.65625C3.72585 7.65625 2.6893 6.5707 2.6893 5.23633C2.6893 3.90195 3.72585 2.81641 5 2.81641C6.27415 2.81641 7.3107 3.90195 7.3107 5.23633C7.3107 6.5707 6.27415 7.65625 5 7.65625Z" fill="black"/>
</svg>
