<svg width="30" height="26" viewBox="0 0 30 26" fill="none" xmlns="http://www.w3.org/2000/svg">
<path d="M29.9951 24.7831L28.3852 12.2192C28.3536 11.9351 28.1326 11.651 27.8485 11.5563L25.1337 10.5777C24.8812 11.0512 24.6286 11.5563 24.3761 12.0298L26.8068 12.9137L28.1958 23.7414L22.4189 21.8789L22.0085 15.5022C21.7244 15.6285 21.4087 15.6916 21.0615 15.6916C20.8405 15.6916 20.588 15.6601 20.3986 15.5969L20.809 21.9105L15.7581 23.7414V12.8505L17.7785 12.0298L17.0208 10.5777L15.0005 11.43L9.44463 9.12555C9.25522 9.06242 9.03425 9.03085 8.84484 9.09398L2.15251 11.5563C1.86841 11.651 1.679 11.9035 1.61587 12.2192L0.00591892 24.7831C-0.0256487 25.0672 0.0690541 25.3198 0.290027 25.5092C0.511 25.6986 0.795108 25.7301 1.04765 25.667L8.27662 23.331L14.7164 25.667C14.9058 25.7301 15.0952 25.7301 15.2531 25.667L21.6928 23.331L28.9218 25.667C29.0165 25.6986 29.0797 25.6986 29.1744 25.6986C29.3638 25.6986 29.5532 25.6354 29.6794 25.5092C29.9004 25.3198 30.0267 25.0672 29.9951 24.7831ZM7.55057 21.8789L1.7737 23.7414L3.16268 12.9137L8.24506 11.0827L7.55057 21.8789ZM14.1798 23.7414L9.12895 21.9105L9.82344 11.0512L14.1798 12.8505V23.7414Z" fill="black"/>
<path d="M20.4941 13.7029C20.7466 14.2079 21.4727 14.2079 21.7252 13.7029C21.7252 13.7029 24.5979 8.08381 25.2608 6.75797C25.9237 5.43213 25.9553 3.94845 25.2608 2.55947C24.1244 0.25503 21.3149 -0.660432 19.0104 0.507572C16.706 1.67558 15.8221 4.54823 16.9585 6.75797C18.095 8.96771 20.4941 13.7029 20.4941 13.7029ZM21.1255 2.5279C22.3566 2.5279 23.3352 3.5065 23.3352 4.73764C23.3352 5.96878 22.3566 6.94738 21.1255 6.94738C19.8943 6.94738 18.9157 5.96878 18.9157 4.73764C18.9157 3.53807 19.8943 2.5279 21.1255 2.5279Z" fill="black"/>
</svg>
