<svg width="26" height="27" viewBox="0 0 26 27" fill="none" xmlns="http://www.w3.org/2000/svg">
<path d="M0.588728 9.21348C0.694941 9.41074 0.822398 9.59889 0.958958 9.77793C0.734392 10.573 0.773843 11.7353 0.767774 12.6396C0.755635 14.3421 0.755635 16.0446 0.758669 17.747L0.764739 19.0246C0.764739 19.0701 0.764739 19.146 0.770808 19.2188L0.782947 19.4373C0.789016 19.583 0.819363 19.7256 0.840606 19.8713C0.892195 20.1596 0.977166 20.4388 1.08641 20.7089C1.52341 21.7922 2.40043 22.6784 3.47774 23.1123C4.01184 23.3339 4.60361 23.4401 5.16806 23.437L6.44566 23.4279L7.72325 23.4188H8.0419H8.09045C8.09956 23.4188 8.10562 23.4188 8.11473 23.4188C8.1299 23.4188 8.14508 23.4188 8.16025 23.4249C8.22398 23.434 8.28467 23.4583 8.33626 23.4917C8.36357 23.5099 8.38785 23.5281 8.41213 23.5493C8.42426 23.5615 8.43337 23.5706 8.46372 23.6039L8.56993 23.7223L9.00085 24.1927L9.85967 25.1365L10.7276 26.0954C11.1858 26.6204 11.905 26.9724 12.6212 26.9967C12.9975 27.0149 13.3647 26.9573 13.7198 26.8268C14.1234 26.672 14.4178 26.4474 14.6575 26.2138C14.7152 26.1561 14.7789 26.0893 14.8244 26.0378L14.9428 25.9073L15.1673 25.6615L15.6165 25.1668L16.5147 24.1805L16.9638 23.6859L17.061 23.5797C17.0822 23.5554 17.0883 23.5524 17.1004 23.5402C17.1247 23.519 17.152 23.5008 17.1793 23.4826C17.237 23.4492 17.3007 23.431 17.3644 23.4249H17.413H17.5769H17.9107L19.2459 23.431H19.9136C20.1412 23.431 20.3293 23.4431 20.6662 23.4219C21.267 23.3794 21.8649 23.2094 22.399 22.9242C23.4702 22.3567 24.2774 21.3279 24.5718 20.1444C24.6477 19.85 24.6901 19.5466 24.6992 19.2461C24.7083 19.0762 24.7053 18.9852 24.7053 18.8698V18.536L24.7114 17.2008L24.7235 11.8628C24.7235 11.2892 24.8055 10.5852 24.7448 10.0025C25.4913 9.21348 25.9617 8.15134 25.992 7.06189C26.0102 6.90712 25.992 6.75539 25.989 6.60366C25.989 6.44889 25.9677 6.30019 25.9404 6.14846C25.904 5.85409 25.8221 5.52938 25.7098 5.24715C25.6552 5.10452 25.5945 4.96493 25.5277 4.83444L25.3487 4.47938L24.9966 3.78444L24.2956 2.39455L24.1196 2.04557L24.0316 1.87259C24.0043 1.81796 23.974 1.75727 23.9315 1.67837C23.7737 1.38704 23.5673 1.12302 23.3306 0.892386C22.8511 0.434149 22.229 0.133716 21.5735 0.0426752C21.4127 0.0214324 21.2367 0.00929364 21.088 0.00929364H20.6995L19.9196 0.015363L13.6864 0.0305365L7.45317 0.015363L5.89638 0.00625904L5.11647 0.000189681C5.00418 0.000189681 4.813 -0.00284509 4.65216 0.015363C4.48829 0.0305364 4.32442 0.0608832 4.16358 0.103369C3.52023 0.267242 2.9315 0.640507 2.50057 1.15033C2.39133 1.27779 2.29725 1.41435 2.20925 1.55698L2.09089 1.77244L2.00289 1.94542L1.6448 2.63733L0.925577 4.01811L0.56445 4.70698C0.430924 4.95886 0.300433 5.25019 0.206358 5.55366C0.157803 5.70843 0.121387 5.86926 0.0971096 6.01796C0.0728322 6.1697 0.036416 6.32143 0.027312 6.47923L0 6.94658L0.0242774 7.41695C0.0880056 8.04513 0.27919 8.66117 0.585693 9.21652L0.588728 9.21348ZM19.343 1.79976L20.9362 1.80583H21.1274C21.1638 1.81189 21.2003 1.80583 21.2367 1.81493C21.3095 1.82403 21.3823 1.83314 21.4552 1.85438C21.5978 1.8908 21.7344 1.94846 21.8588 2.02736C21.9832 2.10626 22.0925 2.2064 22.1865 2.31869C22.2351 2.37331 22.2745 2.43704 22.314 2.49773L22.3686 2.60395L22.4566 2.78299L23.1637 4.21233L23.8677 5.63256C23.9588 5.81767 24.0255 5.99369 24.065 6.16059C24.0862 6.23646 24.0953 6.33964 24.1105 6.43371L24.1348 6.57634V6.71898C24.1803 7.47158 23.8951 8.22114 23.364 8.75221C23.103 9.01926 22.7844 9.23169 22.4414 9.37129L22.314 9.42591L22.1805 9.46233C22.0925 9.48964 22.0044 9.51695 21.9104 9.52606C21.8193 9.53819 21.7283 9.56551 21.6342 9.56247L21.4946 9.56854C21.4491 9.56854 21.4066 9.57765 21.3338 9.57461C21.2094 9.57461 21.0516 9.57461 20.9544 9.57158C20.8634 9.56247 20.7663 9.57158 20.6753 9.55033C20.4932 9.52606 20.3081 9.48964 20.1351 9.42591C19.7861 9.30756 19.4614 9.11637 19.1852 8.86753C19.0062 8.70062 18.8423 8.47909 18.7118 8.24238C18.5783 8.00568 18.4903 7.7538 18.3932 7.52923C18.3477 7.41695 18.2961 7.3077 18.2475 7.20452C18.2111 7.1499 18.1686 7.06493 18.1231 6.98603C18.1322 6.83429 18.1352 6.67952 18.1292 6.52779V6.51869L18.117 6.43978C17.941 5.17432 17.7893 3.90582 17.6679 2.63126C17.6436 2.37028 17.6102 2.07288 17.5435 1.79369L19.3461 1.79976H19.343ZM9.94464 6.71291L10.6487 2.45828C10.6821 2.24585 10.761 2.00611 10.8004 1.77244H12.9702L15.3282 1.78155C15.316 2.16695 15.4192 2.60091 15.4829 2.959C15.7014 4.2184 15.9412 5.47172 16.19 6.72504C16.2568 7.55958 15.9776 8.38198 15.398 9.00712C15.1066 9.32577 14.7516 9.57461 14.3631 9.73848C14.1689 9.82042 13.9626 9.88111 13.7532 9.91753C13.6469 9.93574 13.5407 9.95091 13.4345 9.95698C13.3799 9.96305 13.3283 9.96305 13.2737 9.96305H13.0825C12.9217 9.96305 12.8276 9.96305 12.7183 9.95091C12.6121 9.94181 12.5029 9.92967 12.3997 9.90842C12.1903 9.86897 11.9839 9.80828 11.7897 9.72634C11.3982 9.56247 11.0462 9.31666 10.7549 9.00105C10.1692 8.37895 9.88091 7.55351 9.95071 6.71291H9.94464ZM9.11617 9.86594C9.21935 9.99643 9.3286 10.1209 9.44392 10.2392C9.91126 10.7217 10.4818 11.1102 11.11 11.362C11.4225 11.4865 11.7503 11.5805 12.0811 11.6352C12.248 11.6655 12.4149 11.6837 12.5818 11.6959C12.7456 11.708 12.9277 11.708 13.0613 11.708C13.1948 11.708 13.3799 11.708 13.5438 11.6959C13.7107 11.6837 13.8776 11.6655 14.0445 11.6352C14.3753 11.5775 14.703 11.4865 15.0156 11.362C15.6438 11.1132 16.2173 10.7248 16.6877 10.2453C16.9032 10.0268 17.1004 9.784 17.2734 9.52606C17.4433 9.75062 17.6254 9.95395 17.8014 10.1209C18.2354 10.5518 18.7543 10.8947 19.3218 11.1223C19.6071 11.2315 19.9045 11.3196 20.2049 11.3711C20.3566 11.3893 20.5084 11.4258 20.6601 11.4288C20.8058 11.4349 20.9818 11.447 21.1001 11.447C21.2367 11.447 21.3429 11.4531 21.5037 11.444C21.6555 11.4349 21.8102 11.4318 21.962 11.4136L22.4172 11.3347C22.5598 11.2983 22.7024 11.2558 22.8451 11.2133C22.8542 11.3954 22.8602 11.5684 22.8572 11.7292C22.836 13.4681 22.8268 15.21 22.8238 16.9489V18.2538V18.9063V19.0701L22.8177 19.2006C22.8177 19.2856 22.8117 19.3706 22.7935 19.4525C22.6994 20.1201 22.314 20.7392 21.7586 21.1307C21.4825 21.3249 21.1669 21.4645 20.8361 21.5313L20.5842 21.5707L20.3263 21.5859H19.6738L18.3689 21.595H17.7164L17.3796 21.6011C17.2248 21.6011 17.067 21.6223 16.9153 21.6587C16.6118 21.7285 16.3235 21.859 16.0717 22.0441C15.9472 22.1352 15.8258 22.2444 15.7287 22.3537L15.5011 22.6086L14.6271 23.5797L13.7532 24.5508L13.5347 24.7935C13.4588 24.8785 13.4193 24.924 13.3617 24.9756C13.2494 25.0758 13.1493 25.1395 13.0521 25.1668C12.8033 25.2518 12.5363 25.2245 12.3147 25.1091C12.2601 25.0788 12.2085 25.0454 12.16 25.006C12.1084 24.9635 12.078 24.9301 12.0052 24.8512L11.5682 24.3657L9.82932 22.4204C9.75042 22.3294 9.62903 22.2019 9.51068 22.1078C9.38929 22.0077 9.2588 21.9227 9.11921 21.8499C8.84305 21.7042 8.53351 21.6162 8.22094 21.595C8.0419 21.5859 7.96299 21.5889 7.84768 21.5859H7.51993L6.86748 21.5737L5.56256 21.5555C5.08309 21.5555 4.80693 21.5404 4.47918 21.4372C3.84797 21.246 3.31083 20.7756 3.03771 20.1899C2.89812 19.8986 2.82529 19.583 2.81618 19.2643C2.81011 19.1308 2.81922 18.888 2.82832 18.6726L2.84956 18.0201C2.91026 16.2813 2.98612 14.5424 3.0802 12.8065C3.10448 12.3817 3.12572 11.9022 3.12268 11.4318C3.25014 11.4804 3.3776 11.5229 3.50809 11.5593C3.82066 11.6412 4.14234 11.711 4.46705 11.7292L4.70982 11.7474L4.90404 11.7535L5.09826 11.7596H5.338C5.99045 11.7474 6.64898 11.6078 7.25895 11.3408C7.82643 11.095 8.41516 10.7005 8.86733 10.1785C8.95533 10.0814 9.03424 9.97822 9.1101 9.87201L9.11617 9.86594ZM2.00592 6.33964C2.02716 6.15149 2.07269 6.01796 2.14248 5.83588C2.1789 5.74788 2.21228 5.66897 2.26387 5.56883L2.43381 5.22591L3.10751 3.8603L3.76604 2.52808C3.89956 2.2762 4.10895 2.06681 4.36387 1.93935C4.49132 1.87562 4.62788 1.82707 4.76748 1.80279C4.83728 1.79065 4.91011 1.78458 4.98294 1.78155H5.35014L6.87355 1.77244H8.85215C8.84305 1.88776 8.83698 1.99701 8.81877 2.09412C8.55779 3.55077 8.32412 5.01045 8.09956 6.47317V6.47923C8.09652 6.49441 8.09349 6.51262 8.09349 6.52779C8.07528 6.77056 8.08135 7.01637 8.09956 7.25915C8.08135 7.2895 8.06314 7.31984 8.04797 7.35322C7.96906 7.48675 7.90534 7.63241 7.82036 7.77504C7.66256 8.06637 7.46834 8.36984 7.23164 8.63689C6.99493 8.90395 6.71271 9.13155 6.43048 9.27721C6.11184 9.44715 5.76285 9.55033 5.40476 9.58371L5.13468 9.59585H4.75837C4.55505 9.58371 4.39118 9.58068 4.2091 9.54123C3.51112 9.4077 2.8526 8.99499 2.45202 8.39412C2.04841 7.79932 1.86936 7.06493 2.00896 6.33357L2.00592 6.33964Z" fill="#BDBDBD"/>
</svg>
