<svg width="23" height="25" viewBox="0 0 23 25" fill="none" xmlns="http://www.w3.org/2000/svg">
<path fill-rule="evenodd" clip-rule="evenodd" d="M11.516 0C6.74998 0 2.88742 3.87509 2.88742 8.65387V10.9507C2.88742 13.4436 2.1516 15.88 0.773409 17.9532C-0.318355 19.595 0.856099 21.7945 2.82391 21.7945H6.99695C7.02451 21.875 7.05447 21.9531 7.08683 22.0325C7.32771 22.6154 7.68125 23.1454 8.12705 23.5914C8.57166 24.0385 9.10018 24.393 9.6814 24.6334C10.2638 24.8762 10.887 25 11.5162 25C12.1454 25 12.7685 24.8762 13.351 24.6334C13.9322 24.393 14.4607 24.0385 14.9053 23.5914C15.3511 23.1454 15.7035 22.6154 15.9444 22.0325C15.9767 21.9531 16.0079 21.875 16.0354 21.7945H20.2085C22.1763 21.7945 23.3507 19.595 22.259 17.9532C20.8808 15.8799 20.145 13.4437 20.145 10.9507V8.65387C20.145 3.87509 16.2809 0 11.516 0ZM4.80489 8.65387C4.80489 4.93632 7.80934 1.92308 11.516 1.92308C15.2228 1.92308 18.2272 4.93632 18.2272 8.65387V10.9507C18.2272 13.8221 19.0745 16.6298 20.6636 19.0206C20.9057 19.3848 20.6444 19.8716 20.2082 19.8716H2.82391C2.38648 19.8716 2.12644 19.3848 2.3685 19.0206C3.95761 16.63 4.80489 13.8221 4.80489 10.9507V8.65387ZM13.9081 21.7945H9.12396C9.22942 21.952 9.34807 22.0986 9.4823 22.232C9.74955 22.5001 10.0659 22.7128 10.4147 22.857C10.7646 23.0025 11.1385 23.077 11.516 23.077C11.8935 23.077 12.2674 23.0025 12.6162 22.857C12.9661 22.7128 13.2825 22.5 13.5497 22.232C13.6828 22.0986 13.8027 21.952 13.9081 21.7945Z" fill="black"/>
</svg>
