<svg width="30" height="40" viewBox="0 0 30 40" fill="none" xmlns="http://www.w3.org/2000/svg">
<path d="M7.20937 23.2838C8.27678 24.185 9.61656 24.6557 11.0685 24.6557C11.459 24.6557 11.8595 24.6216 12.2621 24.5515C16.009 23.9107 19.0591 20.3439 19.0771 16.593V16.5849C19.0771 16.5849 19.0771 16.5669 19.0771 16.5589C19.0771 14.6844 18.3441 13.0342 17.0104 11.9108C15.6546 10.7672 13.8602 10.3166 11.9557 10.6431C8.20869 11.2839 5.15865 14.8507 5.14062 18.6016V18.6096C5.14062 18.6096 5.14062 18.6277 5.14062 18.6357C5.14062 20.5102 5.8736 22.1603 7.20736 23.2838H7.20937ZM7.00109 19.3867L8.69734 19.0963C8.79347 20.4421 9.07184 21.6397 9.49239 22.5669C9.08385 22.4107 8.70535 22.1904 8.3689 21.906C7.62592 21.2812 7.15329 20.402 6.99909 19.3867H7.00109ZM12.2621 12.4194C12.2621 12.4194 12.2801 12.4154 12.2941 12.4154C12.3362 12.4154 12.4103 12.4314 12.5284 12.5316C13.0571 12.9782 13.6219 14.356 13.736 16.4047L10.5037 16.9574C10.716 14.1697 11.7173 12.5116 12.2621 12.4174V12.4194ZM13.716 18.2371C13.5037 21.0248 12.5024 22.683 11.9577 22.7772C11.9517 22.7772 11.9476 22.7772 11.9416 22.7792C11.9036 22.7832 11.8275 22.7792 11.6913 22.665C11.1626 22.2184 10.5979 20.8406 10.4837 18.7919L13.716 18.2391V18.2371ZM14.9556 21.3372C15.2841 20.3019 15.4803 19.1163 15.5404 17.9267L17.1666 17.6484C16.8842 19.0662 16.0731 20.382 14.9556 21.3372ZM17.2186 15.8099L15.5224 16.1003C15.4263 14.7545 15.1479 13.5589 14.7273 12.6317C15.1359 12.7899 15.5144 13.0062 15.8488 13.2886C16.5918 13.9134 17.0624 14.7926 17.2186 15.8079V15.8099ZM9.26409 13.8613C8.93566 14.8967 8.7394 16.0823 8.67932 17.2719L7.05316 17.5502C7.33553 16.1323 8.14661 14.8166 9.26409 13.8613Z" fill="black"/>
<path d="M26.5973 3.22925H24.6427C24.6427 2.282 24.2281 1.38681 23.5072 0.771996C22.7862 0.157181 21.8349 -0.109172 20.8977 0.0410269L2.7196 2.95689C1.14352 3.20923 0 4.55101 0 6.14912V36.7677C0 37.717 0.414549 38.6122 1.1355 39.227C1.72429 39.7296 2.46727 40 3.23028 40C3.24831 40 3.26433 40 3.28235 39.998C3.29837 39.998 3.31439 40 3.33042 40H26.5953C28.4978 40 29.8275 38.8224 29.8275 37.1362V6.46154C29.8275 4.67918 28.3776 3.22925 26.5953 3.22925H26.5973ZM2.20492 6.14712C2.20492 5.63845 2.56941 5.21188 3.07207 5.12977L21.2502 2.21391C21.3082 2.20389 21.3663 2.19989 21.4204 2.19989C21.7388 2.19989 21.9651 2.34808 22.0813 2.44621C22.2155 2.56237 22.4438 2.81671 22.4438 3.22925V33.8518C22.4438 34.3605 22.0793 34.7871 21.5766 34.8692L3.3985 37.7851C2.98996 37.8512 2.70358 37.6669 2.5674 37.5528C2.43122 37.4386 2.20492 37.1823 2.20492 36.7697V6.14712ZM27.6266 37.1362C27.6266 37.5748 27.2802 37.7971 26.5973 37.7971H17.2248L21.9231 37.0441C23.4992 36.7917 24.6427 35.45 24.6427 33.8518V5.43217H26.5973C27.164 5.43217 27.6266 5.89479 27.6266 6.46154V37.1362Z" fill="black"/>
<path d="M7.42758 8.71851C7.48566 8.71851 7.54373 8.71451 7.60381 8.70449L17.0463 7.19049C17.6471 7.09436 18.0557 6.52961 17.9595 5.92881C17.8634 5.32802 17.2967 4.91947 16.6979 5.0156L7.25535 6.52961C6.65455 6.62574 6.24601 7.19049 6.34214 7.79128C6.42825 8.332 6.89688 8.71851 7.42758 8.71851Z" fill="black"/>
<path d="M5.66196 31.5168C5.72003 31.5168 5.77811 31.5128 5.83819 31.5028L18.8034 29.424C19.4042 29.3279 19.8127 28.7631 19.7166 28.1623C19.6205 27.5615 19.0557 27.155 18.4549 27.2491L5.48973 29.3279C4.88893 29.424 4.48039 29.9888 4.57652 30.5896C4.66263 31.1303 5.13125 31.5168 5.66196 31.5168Z" fill="black"/>
<path d="M15.1365 31.034L8.80613 32.0494C8.20534 32.1455 7.79679 32.7103 7.89292 33.3111C7.97904 33.8518 8.44766 34.2383 8.97836 34.2383C9.03644 34.2383 9.09451 34.2343 9.15459 34.2243L15.485 33.2089C16.0858 33.1128 16.4943 32.5481 16.3982 31.9473C16.3021 31.3465 15.7373 30.9399 15.1365 31.034Z" fill="black"/>
</svg>
