<svg width="25" height="28" viewBox="0 0 25 28" fill="none" xmlns="http://www.w3.org/2000/svg">
<path d="M12.5 13.7783C5.25688 13.7783 0 17.2354 0 21.9964C0 26.8002 7.13477 27.3562 12.5 27.3562C17.8652 27.3562 25 26.8002 25 21.9964C25 17.234 19.7431 13.7783 12.5 13.7783ZM12.5 25.2123C5.62786 25.2123 2.14294 24.1309 2.14294 21.9964C2.14294 18.5338 6.59613 15.9223 12.5 15.9223C18.4039 15.9223 22.8571 18.5339 22.8571 21.9964C22.8571 24.1309 19.3721 25.2123 12.5 25.2123Z" fill="#BDBDBD"/>
<path d="M12.6513 11.9354C15.9409 11.9354 18.6189 9.25891 18.6189 5.96771C18.6189 2.67651 15.9409 0 12.6513 0C9.36158 0 6.68359 2.67651 6.68359 5.96771C6.68359 9.25891 9.36158 11.9354 12.6513 11.9354ZM12.6513 2.38708C14.6251 2.38708 16.2319 3.99388 16.2319 5.96771C16.2319 7.94154 14.6251 9.54834 12.6513 9.54834C10.6774 9.54834 9.07066 7.94154 9.07066 5.96771C9.07066 3.99388 10.6774 2.38708 12.6513 2.38708Z" fill="#BDBDBD"/>
</svg>
