<svg width="32" height="47" viewBox="0 0 32 47" fill="none" xmlns="http://www.w3.org/2000/svg">
<path d="M15.7678 4.91225C10.0838 4.91225 5.45749 9.19492 5.45749 14.4561C5.45749 19.7176 10.0841 24 15.7678 24C19.5293 24 22.8199 22.1196 24.6172 19.3259H28.7697C29.4489 19.3259 30 18.8157 30 18.187V13.1746C30 5.91128 23.6176 0 15.7674 0C9.02606 0 3.37451 4.36277 1.90958 10.1968C0.858701 10.1998 0 10.9947 0 11.9674V15.1498C0 16.1225 0.861898 16.9204 1.91278 16.9204H2.39338C3.44426 16.9204 4.30616 16.1225 4.30616 15.1498V11.9674C4.30616 11.742 4.2549 11.5285 4.17159 11.3298C5.12322 6.19886 9.95487 2.2779 15.7672 2.2779C22.2586 2.2779 27.5391 7.16562 27.5391 13.1748V17.0482H25.6776C25.9307 16.2237 26.0749 15.3576 26.0749 14.459C26.0781 9.19162 21.4546 4.91225 15.7678 4.91225ZM15.7678 21.72C11.4392 21.72 7.91793 18.4605 7.91793 14.4536C7.91793 10.4468 11.4392 7.18729 15.7678 7.18729C20.0964 7.18729 23.6176 10.4468 23.6176 14.4536C23.6176 15.3671 23.4254 16.2391 23.0922 17.0428H15.3801C14.7009 17.0428 14.1498 17.553 14.1498 18.1817C14.1498 18.8105 14.7009 19.3206 15.3801 19.3206H21.5799C20.1413 20.7917 18.0715 21.72 15.7678 21.72Z" fill="#020202"/>
<path d="M15.7708 46.9792C11.6875 46.9792 7.58333 45.9375 4.47917 43.8542C1.58333 41.9375 0 39.3125 0 36.4584C0 33.6042 1.58333 30.9584 4.47917 29.0209C10.7292 24.875 20.8542 24.875 27.0625 29.0209C29.9375 30.9375 31.5417 33.5625 31.5417 36.4167C31.5417 39.2709 29.9583 41.9167 27.0625 43.8542C23.9375 45.9375 19.8542 46.9792 15.7708 46.9792ZM6.20833 31.6459C4.20833 32.9792 3.125 34.6875 3.125 36.4792C3.125 38.25 4.22917 39.9584 6.20833 41.2709C11.3958 44.75 20.1458 44.75 25.3333 41.2709C27.3333 39.9375 28.4167 38.2292 28.4167 36.4375C28.4167 34.6667 27.3125 32.9584 25.3333 31.6459C20.1458 28.1875 11.3958 28.1875 6.20833 31.6459Z" fill="#292D32"/>
</svg>
