<svg width="35" height="35" viewBox="0 0 35 35" fill="none" xmlns="http://www.w3.org/2000/svg">
<path d="M5.11797 29.8809C11.9437 36.7064 23.0104 36.7064 29.8807 29.8809C36.7064 23.0555 36.7064 11.9892 29.8807 5.11909C23.055 -1.70636 11.9883 -1.70636 5.11797 5.11909C-1.70599 11.9445 -1.70599 23.0555 5.11797 29.8809ZM10.062 12.5561C9.36135 11.8555 9.36135 10.7618 10.062 10.0629C10.7627 9.36222 11.8564 9.36222 12.5554 10.0629L17.4994 15.0068L22.4435 10.0629C23.1442 9.36222 24.2379 9.36222 24.9368 10.0629C25.6375 10.7635 25.6375 11.8572 24.9368 12.5561L19.9928 17.5L24.9368 22.4439C25.6375 23.1445 25.6375 24.2382 24.9368 24.9371C24.2361 25.6378 23.1424 25.6378 22.4435 24.9371L17.4994 19.9932L12.5554 24.9371C11.8547 25.6378 10.761 25.6378 10.062 24.9371C9.36135 24.2365 9.36135 23.1428 10.062 22.4439L15.0061 17.5L10.062 12.5561Z" fill="#DC3545"/>
</svg>
