<svg width="15" height="11" viewBox="0 0 15 11" fill="none" xmlns="http://www.w3.org/2000/svg">
<path d="M14.7164 4.91571L9.91072 0.241379C9.57983 -0.0804598 9.04412 -0.0804598 8.72899 0.241379C8.39811 0.563218 8.39811 1.08429 8.72899 1.3908L12.1166 4.68582H0.835084C0.378151 4.68582 0 5.05364 0 5.49808C0 5.94253 0.378151 6.31034 0.835084 6.31034H12.1008L8.72899 9.60536C8.39811 9.9272 8.39811 10.4483 8.72899 10.7548C8.88655 10.908 9.10714 11 9.32773 11C9.54832 11 9.75315 10.9234 9.92647 10.7548L14.7479 6.06513C14.9055 5.91188 15 5.69732 15 5.48276C14.9685 5.28352 14.874 5.06897 14.7164 4.91571Z" fill="black"/>
</svg>
