<svg width="26" height="25" viewBox="0 0 26 25" fill="none" xmlns="http://www.w3.org/2000/svg">
<path d="M10.1306 20.1639C8.13407 20.1735 6.17968 19.5901 4.51512 18.4877C2.85056 17.3853 1.55077 15.8136 0.780523 13.9716C0.0102732 12.1297 -0.195759 10.1005 0.188543 8.14134C0.572845 6.18217 1.53018 4.38121 2.93919 2.96674C4.3482 1.55227 6.14545 0.587988 8.10312 0.196117C10.0608 -0.195754 12.0907 0.00243453 13.9356 0.76556C15.7805 1.52868 17.3573 2.82239 18.4662 4.48268C19.575 6.14297 20.1659 8.09509 20.164 10.0916C20.1646 12.7564 19.109 15.3128 17.2283 17.2008C15.3477 19.0887 12.7953 20.1542 10.1306 20.1639ZM10.1306 1.95218C8.51928 1.94256 6.94143 2.41154 5.59699 3.29967C4.25255 4.1878 3.20206 5.45509 2.57866 6.94092C1.95527 8.42674 1.78704 10.0642 2.09531 11.6457C2.40357 13.2273 3.17445 14.6817 4.31022 15.8246C5.446 16.9676 6.89554 17.7476 8.47511 18.0658C10.0547 18.384 11.6932 18.226 13.1829 17.612C14.6726 16.9979 15.9465 15.9554 16.843 14.6166C17.7396 13.2778 18.2185 11.7029 18.219 10.0916C18.2235 7.94033 17.3744 5.87513 15.858 4.34918C14.3416 2.82324 12.2818 1.96118 10.1306 1.95218Z" fill="black"/>
<path d="M16.4093 15.4623L15.5508 16.3208L20.7722 21.5422L21.6307 20.6837L16.4093 15.4623Z" fill="black"/>
<path d="M23.8819 21.3841L20.01 17.5122C19.3443 16.8465 18.265 16.8465 17.5993 17.5122C16.9336 18.1779 16.9336 19.2572 17.5993 19.9229L21.4712 23.7948C22.1369 24.4605 23.2162 24.4605 23.8819 23.7948C24.5476 23.1291 24.5476 22.0498 23.8819 21.3841Z" fill="black"/>
</svg>
