<svg width="12" height="13" viewBox="0 0 12 13" fill="none" xmlns="http://www.w3.org/2000/svg">
<path d="M7.68671 0.858653C7.56039 0.732337 7.3709 0.732337 7.24458 0.858653C7.11826 0.984968 7.11826 1.17444 7.24458 1.30076L7.69934 1.75549H1.06742L1.52218 1.30076C1.64851 1.17444 1.64851 0.984968 1.52218 0.858653C1.39586 0.732337 1.20638 0.732337 1.08006 0.858653L0.0947417 1.84392C-0.0315806 1.97023 -0.0315806 2.1597 0.0947417 2.28602L1.08006 3.27128C1.14322 3.33444 1.21901 3.3597 1.2948 3.3597C1.3706 3.3597 1.45902 3.33444 1.50955 3.27128C1.63587 3.14497 1.63587 2.95549 1.50955 2.82918L1.05479 2.37444H7.69934L7.24458 2.82918C7.11826 2.95549 7.11826 3.14497 7.24458 3.27128C7.30774 3.33444 7.38354 3.3597 7.45933 3.3597C7.53512 3.3597 7.62355 3.33444 7.67408 3.27128L8.65939 2.28602C8.78571 2.1597 8.78571 1.97023 8.65939 1.84392L7.68671 0.858653Z" fill="black"/>
<path d="M11.4764 11.2418L11.0217 11.6965V5.06497L11.4764 5.51971C11.5396 5.58287 11.6154 5.60813 11.6912 5.60813C11.767 5.60813 11.8554 5.58287 11.9059 5.51971C12.0323 5.39339 12.0323 5.20392 11.9059 5.07761L10.9206 4.09234C10.8069 3.97866 10.5922 3.97866 10.4785 4.09234L9.49318 5.07761C9.36686 5.20392 9.36686 5.39339 9.49318 5.51971C9.6195 5.64603 9.80898 5.64603 9.93531 5.51971L10.3901 5.06497V11.7092L9.93531 11.2544C9.80898 11.1281 9.6195 11.1281 9.49318 11.2544C9.36686 11.3808 9.36686 11.5702 9.49318 11.6965L10.4785 12.6818C10.5417 12.745 10.6174 12.7702 10.6932 12.7702C10.769 12.7702 10.8575 12.745 10.908 12.6818L11.8933 11.6965C12.0196 11.5702 12.0196 11.3808 11.8933 11.2544C11.7922 11.1281 11.6028 11.1281 11.4764 11.2418Z" fill="black"/>
<path d="M8.29439 4.16797H0.487681C0.310829 4.16797 0.171875 4.30692 0.171875 4.48376V12.3027C0.171875 12.4795 0.310829 12.6185 0.487681 12.6185H8.30703C8.48388 12.6185 8.62283 12.4795 8.62283 12.3027V4.48376C8.6102 4.30692 8.47125 4.16797 8.29439 4.16797Z" fill="black"/>
</svg>
