<svg width="28" height="25" viewBox="0 0 28 25" fill="none" xmlns="http://www.w3.org/2000/svg">
<path d="M12.3016 3.06738C10.4744 3.06738 8.89678 4.48551 8.89678 6.35033V15.9751C7.95407 15.1275 6.5538 14.1281 4.92588 14.1281C3.12603 14.1281 1.64329 15.5649 1.70498 17.3375C1.72192 17.8238 1.90582 18.2248 2.03012 18.4698L5.0289 24.3823C5.31011 24.9368 5.98916 25.1591 6.54567 24.8789C7.10212 24.5988 7.32531 23.9222 7.04409 23.3678L4.04526 17.4553C4.00479 17.3754 3.9826 17.3228 3.97024 17.2857C3.96448 17.2683 3.96217 17.2582 3.96132 17.2541C3.95026 16.8379 4.32145 16.3776 4.92588 16.3776C5.68701 16.3776 6.56289 16.8956 7.44018 17.6958C7.85343 18.0728 8.21835 18.4665 8.52249 18.8047C8.57459 18.8627 8.62748 18.9219 8.6793 18.9799C8.77046 19.082 8.85817 19.1802 8.93172 19.2604C9.03067 19.3684 9.18511 19.5354 9.34023 19.6535C9.68145 19.9133 10.141 19.9578 10.526 19.7682C10.911 19.5786 11.1546 19.1878 11.1546 18.7599V6.35033C11.1546 5.83126 11.615 5.31686 12.3016 5.31686C12.9883 5.31686 13.4486 5.83126 13.4486 6.35033V12.8249C13.4486 13.3459 13.8078 13.7988 14.3166 13.9192L21.3743 15.5897C23.4095 16.0714 24.8463 17.8827 24.8463 19.9668V23.8751C24.8463 24.4963 25.3517 24.9998 25.9752 24.9998C26.5987 24.9998 27.1041 24.4963 27.1041 23.8751V19.9668C27.1041 16.8406 24.9491 14.1237 21.8962 13.4011L15.7065 11.9361V6.35033C15.7065 4.48551 14.1289 3.06738 12.3016 3.06738Z" fill="black"/>
<path d="M1.27142 7.44716C1.02332 7.53928 0.746334 7.50716 0.525682 7.36071C0.305029 7.21422 0.167145 6.97096 0.154448 6.70572L0.00325498 3.5466C-0.0123481 3.22054 0.16315 2.91538 0.452229 2.76591C0.741304 2.61645 1.0907 2.6502 1.34607 2.85227L1.98367 3.3568C3.73517 1.30424 6.28247 0.00288708 9.13365 0.00419814C9.59205 0.00440893 9.96346 0.377598 9.96325 0.83774C9.96304 1.29788 9.59128 1.67073 9.13289 1.67052C6.83095 1.66946 4.7439 2.71077 3.28789 4.38876L4.11164 5.04059C4.34747 5.2272 4.46453 5.52711 4.41766 5.82486C4.37084 6.12261 4.16742 6.37176 3.8858 6.47631L1.27142 7.44716Z" fill="black"/>
<path d="M25.7325 7.44716C25.9806 7.53928 26.2576 7.50716 26.4782 7.36071C26.6989 7.21422 26.8368 6.97096 26.8495 6.70572L27.0007 3.5466C27.0163 3.22054 26.8408 2.91538 26.5517 2.76591C26.2626 2.61645 25.9132 2.6502 25.6578 2.85227L25.0202 3.3568C23.2687 1.30424 20.7214 0.00288708 17.8703 0.00419814C17.4119 0.00440893 17.0404 0.377598 17.0407 0.83774C17.0409 1.29788 17.4126 1.67073 17.871 1.67052C20.173 1.66946 22.26 2.71077 23.716 4.38876L22.8923 5.04059C22.6564 5.2272 22.5394 5.52711 22.5862 5.82486C22.6331 6.12261 22.8365 6.37176 23.1181 6.47631L25.7325 7.44716Z" fill="black"/>
</svg>
