<svg width="32" height="44" viewBox="0 0 32 44" fill="none" xmlns="http://www.w3.org/2000/svg">
<path d="M15.3333 21.6042C15.2708 21.6042 15.2292 21.6042 15.1667 21.6042C15.0625 21.5833 14.9167 21.5833 14.7917 21.6042C8.75 21.4167 4.1875 16.6667 4.1875 10.8125C4.1875 4.85417 9.04167 0 15 0C20.9583 0 25.8125 4.85417 25.8125 10.8125C25.7917 16.6667 21.2083 21.4167 15.3958 21.6042C15.375 21.6042 15.3542 21.6042 15.3333 21.6042ZM15 3.125C10.7708 3.125 7.3125 6.58333 7.3125 10.8125C7.3125 14.9792 10.5625 18.3333 14.7083 18.4792C14.8125 18.4583 15.1042 18.4583 15.375 18.4792C19.4583 18.2917 22.6667 14.9375 22.6875 10.8125C22.6875 6.58333 19.2292 3.125 15 3.125Z" fill="#292D32"/>
<path d="M15.7708 43.4636C11.6875 43.4636 7.58333 42.4219 4.47917 40.3386C1.58333 38.4219 0 35.7969 0 32.9427C0 30.0886 1.58333 27.4427 4.47917 25.5052C10.7292 21.3594 20.8542 21.3594 27.0625 25.5052C29.9375 27.4219 31.5417 30.0469 31.5417 32.9011C31.5417 35.7552 29.9583 38.4011 27.0625 40.3386C23.9375 42.4219 19.8542 43.4636 15.7708 43.4636ZM6.20833 28.1302C4.20833 29.4636 3.125 31.1719 3.125 32.9636C3.125 34.7344 4.22917 36.4427 6.20833 37.7552C11.3958 41.2344 20.1458 41.2344 25.3333 37.7552C27.3333 36.4219 28.4167 34.7136 28.4167 32.9219C28.4167 31.1511 27.3125 29.4427 25.3333 28.1302C20.1458 24.6719 11.3958 24.6719 6.20833 28.1302Z" fill="#292D32"/>
</svg>
