<svg width="224" height="212" viewBox="0 0 224 212" fill="none" xmlns="http://www.w3.org/2000/svg">
<path fill-rule="evenodd" clip-rule="evenodd" d="M79.3362 164.904C82.3135 164.578 82.8158 169.096 79.8386 169.432L38.2211 174.109C33.9041 174.593 29.9405 171.77 28.9823 167.512L0.205167 39.6999C-0.632185 35.9824 1.16347 32.06 4.31761 30.3922C4.95959 30.0289 5.64807 29.7587 6.37379 29.5723L79.4289 0.847546C81.8386 -0.102808 84.2764 -0.400955 86.7325 0.726424C89.2075 1.86311 90.8914 3.94094 91.4962 6.59613L94.427 19.5935C97.4507 19.2487 99.7211 18.8481 102.549 20.8606C104.206 22.0346 105.434 23.8049 105.908 25.9384L113.333 58.9017C113.993 61.8274 109.556 62.8241 108.895 59.8986L101.48 26.9354C101.033 24.9508 99.2001 23.6464 97.1718 23.8699L7.72261 33.9418L6.33632 34.4916C5.60132 34.8736 4.79186 36.122 4.60579 37.0444C4.50345 37.5662 4.51275 38.1159 4.64301 38.7029L33.4106 166.515C33.8572 168.5 35.6901 169.804 37.7184 169.581L79.3362 164.904ZM169.91 132.351C169.119 130.841 168.188 129.388 167.137 128.037C165.155 130.301 162.922 132.36 160.494 133.935C163.732 133.925 166.904 133.385 169.91 132.351ZM164.057 124.636C160.848 128.382 156.261 132.22 152.055 132.267L157.014 119.763C159.638 121.058 162.001 122.717 164.057 124.636ZM152.79 118.095C149.99 117.229 147.143 116.8 144.333 116.791C144.1 121.72 144.798 127.664 147.831 130.599L152.79 118.095ZM139.765 117.136C138.071 117.406 136.406 117.816 134.787 118.375C136.266 121.189 138.202 123.779 140.546 125.996C139.867 123.173 139.662 120.145 139.765 117.136ZM132.991 114.173C135.308 113.353 137.708 112.785 140.165 112.487C140.686 108.639 141.681 104.539 143.17 100.393L132.74 96.2375C130.879 102.275 131.084 108.527 132.991 114.173ZM144.798 112.244C148.017 112.3 151.274 112.822 154.474 113.856L157.554 106.104L147.403 102.061C146.156 105.564 145.291 109.002 144.798 112.244ZM158.689 115.533C161.731 116.987 164.457 118.841 166.83 121.012C168.69 118.31 170.421 115.217 171.919 111.825L161.768 107.781L158.689 115.533ZM170.03 124.366C172.291 121.207 174.375 117.546 176.143 113.511L186.573 117.658C183.8 123.332 179.362 127.739 174.096 130.534C172.97 128.344 171.612 126.276 170.03 124.366ZM151.478 77.194C152.259 78.6289 153.162 80.0078 154.167 81.2937C156.074 79.1694 158.195 77.2408 160.493 75.7407C157.404 75.7501 154.362 76.253 151.478 77.194ZM157.265 84.6663C160.456 81.0421 164.885 77.455 168.941 77.4082L164.178 89.4181C161.601 88.1417 159.284 86.5392 157.265 84.6663ZM168.393 91.0858C171.128 91.9337 173.919 92.3623 176.673 92.3902C176.841 87.5641 176.078 81.9085 173.156 79.0761L168.393 91.0858ZM181.241 92.0734C182.86 91.8312 184.461 91.4492 186.014 90.9461C184.563 88.272 182.693 85.8124 180.451 83.6879C181.083 86.3434 181.306 89.2317 181.241 92.0734ZM187.866 95.12C185.614 95.8934 183.269 96.4337 180.888 96.7133C180.385 100.701 179.371 104.968 177.827 109.291L188.256 113.437C190.154 107.27 189.903 100.86 187.866 95.12ZM176.273 96.9369C173.091 96.8717 169.881 96.3499 166.718 95.325L163.443 103.571L173.593 107.614C174.905 103.934 175.789 100.319 176.273 96.9369ZM162.494 93.6479C159.498 92.2131 156.8 90.3869 154.436 88.2534C152.464 91.0486 150.631 94.2814 149.068 97.8499L159.219 101.894L162.494 93.6479ZM151.245 84.9177C148.882 88.1601 146.695 91.9614 144.853 96.1634L134.423 92.0172C137.261 86.2126 141.839 81.7404 147.254 78.9638C148.361 81.0695 149.7 83.073 151.245 84.9177ZM147.198 73.942C164.215 66.5909 184.004 74.4731 191.345 91.5142C194.75 99.4151 195.131 108.611 191.708 117.248C188.274 125.885 181.687 132.314 173.798 135.715C156.827 143.038 137.02 135.249 129.651 118.142C122.31 101.111 130.162 81.3027 147.198 73.942ZM123.64 148.665C122.486 148.181 121.947 146.848 122.431 145.693C122.914 144.538 124.245 143.997 125.399 144.482L166.728 161.998C167.882 162.483 168.421 163.815 167.937 164.98C167.454 166.135 166.123 166.675 164.969 166.191L123.64 148.665ZM112.215 157.433L169.231 181.602C170.385 182.086 171.715 181.546 172.208 180.39C172.692 179.235 172.152 177.903 170.999 177.409L113.983 153.24C112.829 152.755 111.498 153.296 111.005 154.451C110.512 155.616 111.052 156.948 112.215 157.433ZM131.828 33.9897C128.208 34.1201 125.036 36.5333 123.975 40.1017L86.7496 165.706C85.5122 169.88 87.5963 174.277 91.6064 175.973L174.253 210.818C178.952 212.803 184.255 210.278 185.706 205.386L222.932 79.7826C223.546 77.6956 223.341 75.5527 222.476 73.7264C220.997 70.5959 218.81 69.8319 216.01 68.6486L219.796 55.8561C220.569 53.2379 220.113 50.6106 218.503 48.4117C216.903 46.2315 214.633 45.3091 212.055 44.9551L134.301 34.2869C133.445 34.1099 132.749 33.9245 131.828 33.9897ZM212.483 72.0978C212.409 72.0698 212.325 72.0419 212.26 72.0046L133.669 38.8625L131.874 38.5457C131.036 38.5178 129.725 39.2072 129.11 39.934C128.766 40.3346 128.506 40.8284 128.338 41.3967L91.1127 166.991C90.5358 168.948 91.4942 170.988 93.3736 171.78L176.02 206.625C178.207 207.548 180.672 206.383 181.351 204.1L218.577 78.4964C219.154 76.5398 218.195 74.49 216.325 73.7074L212.483 72.0978ZM211.795 66.8709L215.432 54.5724C215.972 52.7463 215.191 50.827 213.525 50.0162C212.93 49.7274 212.223 49.5597 211.45 49.4479L150.743 41.1183L211.795 66.8709ZM85.2701 97.6923C83.8373 96.7606 82.3207 95.95 80.7392 95.2792C80.1158 98.2234 79.1668 101.121 77.8177 103.683C80.6461 102.099 83.1582 100.068 85.2701 97.6923ZM76.4033 93.8349C73.6681 93.1548 70.8115 92.8753 67.881 93.0337L69.6487 106.366C73.2958 104.261 75.4266 98.6704 76.4033 93.8349ZM63.3777 93.63C60.5121 94.2356 57.8232 95.2605 55.3576 96.6301C57.5533 101.046 61.0701 105.882 65.1361 106.963L63.3777 93.63ZM51.5524 99.1643C50.194 100.226 48.9379 101.4 47.8029 102.677C50.4732 104.419 53.4226 105.724 56.558 106.506C54.5856 104.391 52.9296 101.838 51.5524 99.1643ZM44.1931 99.9004C45.812 98.0463 47.6355 96.3691 49.636 94.9063C48.2125 91.2913 47.0774 87.2384 46.3517 82.8871L35.2334 84.3685C36.5359 90.5456 39.7643 95.9033 44.1931 99.9004ZM53.5436 92.4373C56.3813 90.9094 59.4796 89.7726 62.7731 89.1112L61.6753 80.847L50.8454 82.2818C51.478 85.9436 52.3992 89.3628 53.5436 92.4373ZM67.2855 88.5149C70.6443 88.2913 73.9286 88.5801 77.0641 89.3069C77.3711 86.0458 77.3711 82.5053 77.0175 78.8066L66.1876 80.2414L67.2855 88.5149ZM81.4833 90.6672C83.7907 91.5616 85.9864 92.6983 88.0333 94.068C91.2618 89.0646 92.9829 83.0458 92.6388 76.7289L81.5204 78.2103C81.9484 82.5985 81.9206 86.8098 81.4833 90.6672ZM37.0671 57.723C25.6697 72.4441 28.4423 93.6773 43.2263 105.007C57.9545 116.299 79.0369 113.486 90.3148 98.7458C101.563 84.034 98.8093 62.8368 84.0625 51.5907C69.2693 40.345 48.4091 43.0655 37.0693 57.7213L37.0671 57.723ZM42.2774 58.5895C43.6637 59.4653 45.1151 60.22 46.6316 60.8535C47.2549 58.0676 48.1667 55.3471 49.4507 52.9061C46.7526 54.4155 44.3429 56.3441 42.2774 58.5895ZM50.9765 62.2698C53.656 62.9127 56.4566 63.1829 59.3221 63.0245L57.6288 50.2227C54.1025 52.2539 51.9907 57.546 50.9765 62.2698ZM63.8252 62.4282C66.6257 61.8319 69.2681 60.835 71.6871 59.5118C69.4821 55.2166 66.0582 50.67 62.132 49.6264L63.8252 62.4282ZM75.5016 57.015C76.8041 56.0088 78.0137 54.9 79.1208 53.6889C76.5436 52.0677 73.7152 50.8379 70.7194 50.0832C72.5895 52.0957 74.1711 54.4903 75.5016 57.015ZM82.7866 56.4281C81.1956 58.2076 79.4092 59.8289 77.4647 61.2356C78.9719 64.9532 80.1628 69.1738 80.9257 73.702L92.044 72.2206C90.7042 65.9037 87.3642 60.4438 82.7866 56.4281ZM73.5478 63.6862C70.7472 65.1769 67.6864 66.2951 64.4206 66.9472L65.5836 75.7333L76.4135 74.2984C75.7623 70.4597 74.7852 66.8726 73.5478 63.6862ZM59.9266 67.5528C56.6145 67.7671 53.3673 67.4969 50.2691 66.7795C49.9155 70.1803 49.8876 73.8978 50.2598 77.7831L61.0897 76.3482L59.9266 67.5528ZM45.8496 65.4378C43.5981 64.5806 41.458 63.4905 39.4578 62.1861C36.0896 67.2546 34.2847 73.4039 34.6384 79.8608L45.7567 78.3794C45.3101 73.8046 45.3565 69.4256 45.8496 65.4378ZM52.8555 134.608L90.9932 130.397C93.9704 130.071 93.4681 125.543 90.4907 125.869L52.3531 130.08C49.3851 130.406 49.8781 134.944 52.8555 134.608ZM47.1615 147.857L87.1308 143.441C90.1081 143.115 89.6058 138.586 86.6284 138.913L46.6591 143.32C43.6818 143.655 44.1842 148.183 47.1615 147.857ZM24.0877 27.5079L89.8949 20.11L87.0758 7.59707C86.6571 5.74297 85.0475 4.45721 83.1868 4.56908C82.5355 4.60635 81.8377 4.81132 81.0934 5.10016L24.0877 27.5079Z" fill="#29BCA2"/>
</svg>
