<svg width="13" height="15" viewBox="0 0 13 15" fill="none" xmlns="http://www.w3.org/2000/svg">
<path d="M1.75948 10.3067L4.63524 11.9616L2.87441 15L2.08672 13.0515L0 13.3451L1.759 10.3067L1.75948 10.3067ZM11.2405 10.3067L8.36476 11.9616L10.1256 15L10.9133 13.0515L13 13.3451L11.241 10.3067L11.2405 10.3067ZM10.9061 9.72984L8.03035 11.3848L6.50069 12.265L4.97103 11.3848L2.09526 9.72984L1.17238 9.19794L1.17107 3.06637L6.50006 0L11.8291 3.06637V9.19794L10.9061 9.72984ZM11.1602 8.81316V3.45177L6.5 0.770075L1.83983 3.45177V8.81383L6.5 11.4955L11.1602 8.81383V8.81316ZM6.5 1.53958L10.4914 3.83644V8.42966L6.5 10.7247L2.50865 8.42966V3.83644L6.5 1.53958ZM8.47118 4.32745L5.73905 7.13348L4.62282 5.93815L4.13296 6.39259L5.7286 8.10161L8.95064 4.7924L8.47058 4.3282L8.47118 4.32745Z" fill="#29BCA2"/>
</svg>
