<svg width="26" height="23" viewBox="0 0 26 23" fill="none" xmlns="http://www.w3.org/2000/svg">
<path d="M24.1684 3.93785L23.9222 2.41273C23.8628 2.03424 23.7365 1.67253 23.5505 1.34843C23.3645 1.02434 23.1225 0.744257 22.8384 0.524336C22.5543 0.304414 22.2338 0.148997 21.8954 0.0670378C21.5569 -0.0149211 21.2072 -0.0218013 20.8663 0.046794L2.45524 3.66121C2.07602 3.73613 1.7163 3.90265 1.40159 4.14896C0.978973 4.39596 0.625124 4.76612 0.378149 5.21958C0.131175 5.67304 0.000431486 6.19262 0 6.72237V20.0881C0 20.8604 0.27666 21.601 0.769117 22.1471C1.26157 22.6932 1.92949 23 2.62593 23H23.3741C24.0705 23 24.7384 22.6932 25.2309 22.1471C25.7233 21.601 26 20.8604 26 20.0881V6.72237C26.0017 6.10249 25.825 5.49816 25.4956 4.99735C25.1662 4.49653 24.7012 4.12536 24.1684 3.93785ZM24.3752 15.5164H22.6355C22.4412 15.5227 22.2478 15.4842 22.0675 15.4034C21.8873 15.3226 21.7242 15.2012 21.5884 15.0468C21.4592 14.9039 21.3574 14.7335 21.2892 14.5459C21.2209 14.3582 21.1876 14.1572 21.1913 13.9549C21.2158 13.5477 21.383 13.1674 21.6573 12.8952C21.9315 12.6231 22.2909 12.4809 22.6585 12.4989H24.3785L24.3752 15.5164ZM21.1551 1.85218C21.2837 1.82551 21.4158 1.8275 21.5437 1.85805C21.6715 1.8886 21.7926 1.94709 21.8999 2.03011C22.0071 2.11313 22.0984 2.21901 22.1683 2.34158C22.2383 2.46414 22.2855 2.60093 22.3073 2.74396L22.4747 3.80317H11.1897L21.1551 1.85218ZM23.3773 21.191H2.63578C2.37461 21.191 2.12414 21.0759 1.93947 20.8711C1.7548 20.6664 1.65105 20.3886 1.65105 20.099V6.72237C1.65034 6.51531 1.70273 6.31229 1.80211 6.137C1.90149 5.9617 2.04377 5.82135 2.21235 5.73232C2.34711 5.65853 2.49533 5.61993 2.64562 5.61948H23.42C23.676 5.628 23.919 5.7468 24.0973 5.95067C24.2756 6.15453 24.3753 6.42743 24.3752 6.71145V10.6899H22.6782C22.076 10.6586 21.4793 10.8299 20.9664 11.1813C20.4535 11.5327 20.0484 12.0478 19.8042 12.6591C19.56 13.2703 19.4881 13.9491 19.598 14.6065C19.7079 15.2639 19.9944 15.869 20.4199 16.3426C20.9932 16.9773 21.7697 17.3345 22.5797 17.3363H24.3752V20.0735C24.3783 20.2206 24.3546 20.3668 24.3055 20.5035C24.2563 20.6402 24.1828 20.7644 24.0893 20.8688C23.9958 20.9731 23.8843 21.0555 23.7614 21.1108C23.6384 21.1662 23.5067 21.1935 23.3741 21.191H23.3773Z" fill="#BDBDBD"/>
</svg>
